<svg xmlns="http://www.w3.org/2000/svg" viewBox="0 0 424 310"><defs><style>.a,.i{fill:#fff;}.b{fill:#ffd673;}.c{fill:#a00c10;}.d{fill:#441600;}.e{fill:#fcb614;}.f{fill:#ec1c24;}.g{fill:#d6de23;}.h{fill:#f89e36;}.i{opacity:0.4;}</style></defs><title>background1</title><rect class="a" width="424" height="310"/><polyline class="a" points="144.61 47.54 142.46 51.06 139.95 52.37 140.01 55.53 140.37 57.74 141.38 61.2 149.67 64.84 159.22 67.83 163.33 68.06 165.84 66.75 167.09 66.1 169.92 63.01 169.84 60.67 169.18 59.42 168.17 55.96 166.86 53.45 158.57 49.81 148.07 46.52 144.61 47.54"/><path class="b" d="M173.49,60.2a13.76,13.76,0,0,0-5.29-5.44c-3.71-2.11-15.82-5.2-17.37-4.75s-3.49,1.09-3.49,1.09l-.08,1.3s15.41,4.07,19.61,5.69A45.6,45.6,0,0,0,173.49,60.2Z"/><path class="b" d="M170.92,67.21s-1.65,1.71-6.62.47-17.63-5.92-18.59-6.89-1-3.56-1-3.56,9.36,4.54,13.85,5.94S170.92,67.21,170.92,67.21Z"/><path class="c" d="M174.42,64.82s1.81-1.55-6.84-4.67-22.24-7.57-23-6.22a2.53,2.53,0,0,0,.29,2.68s11.55,5.71,16.46,7.14,9.43,3.06,11.43,2.87S174.42,64.82,174.42,64.82Z"/><path class="d" d="M172.26,67.48a4.09,4.09,0,0,0,3.46-2.8,3.57,3.57,0,0,0-.19-2.91,3.46,3.46,0,0,0-.88-.93.76.76,0,0,0,0-.11,9.25,9.25,0,0,0-2.33-6.29c-1.43-1.49-6.48-3.47-10.37-4.7-2.61-.83-8.95-2.67-11.39-1.89s-3.4,2.12-3.69,3a2.56,2.56,0,0,0-.15.84,3.78,3.78,0,0,0-3.13,2.23,3.19,3.19,0,0,0,1,3.22.77.77,0,0,0-.07.15,6.67,6.67,0,0,0,1.7,6c1.58,1.48,14.41,6,19.4,7.06C170.13,71.3,171.76,68.68,172.26,67.48ZM151,49.31c3.12-1,18,3.9,20.18,6.19a7.47,7.47,0,0,1,1.87,4.34c-6-3.32-20.57-7.33-24.82-8.08a.76.76,0,0,0,0-.12C148.27,51.58,148.29,50.19,151,49.31Zm-6,5.1a2.52,2.52,0,0,1,2.24-1.24c.86,0,7,1.44,13.62,3.55,9,2.85,12.75,4.87,13.28,5.81a2.08,2.08,0,0,1,.07,1.66A2.59,2.59,0,0,1,171.71,66c-2.57,0-21.52-6.09-25.18-9.09C145.36,55.94,144.84,55.06,145.06,54.4Zm2.17,7.76a5.38,5.38,0,0,1-1.39-3.86c3.94,2.84,19.77,8.21,24.78,9.09-.52.88-1.78,2.07-4.73,1.46C160.64,67.74,148.38,63.23,147.23,62.16Z"/><path class="e" d="M158,60.8a2.82,2.82,0,0,0,1.47,1.76,1.78,1.78,0,0,0,1.9-.26c.65-.5.7-1.44,1.29-2s.59,1.11.62,1.38a2.39,2.39,0,0,0,1,1.56,2.7,2.7,0,0,0,3.35-.09c.57-.51.82-1.76,1.79-1.24s.79,1.63.78,2.43,1.18.83,1.19.07c0-1.53-.24-3.24-1.92-3.75a1.82,1.82,0,0,0-1.84.51c-.54.55-.67,1.28-1.52,1.42a1.63,1.63,0,0,1-1.45-.62c-.39-.48-.21-1.37-.4-1.95a1.43,1.43,0,0,0-1.34-1,2,2,0,0,0-1.65,1.22c-.36.67-.64,1.73-1.57,1.08-.71-.51-.79-1.79-1.06-2.56a2.17,2.17,0,0,0-3.35-1.26c-.47.37-.74.95-1.19,1.34-.84.74-1.2-1.39-1.29-1.82-.28-1.3-1.69-2.72-3-1.61a2.38,2.38,0,0,0-.56.91c-.12.28-.17.84-.52.6a3.89,3.89,0,0,1-1.34-2.53c-.12-.76-1.29-.51-1.16.24.22,1.37,1.13,3.35,2.66,3.59.59.09,1.05-.48,1.26-.95.12-.28.22-.58.37-.85.25-.44.73-.06.91.24.41.67.34,1.58.68,2.3A1.92,1.92,0,0,0,154,60.13a2.25,2.25,0,0,0,1.4-.93c.45-.54.84-1.31,1.62-.77S157.77,60.06,158,60.8Z"/><path class="b" d="M85.2,169.75a13.76,13.76,0,0,0-4.36-6.2c-3.33-2.67-14.8-7.63-16.4-7.43s-3.62.53-3.62.53l-.28,1.27s14.58,6.45,18.46,8.71A45.6,45.6,0,0,0,85.2,169.75Z"/><path class="b" d="M81.56,176.26s-1.9,1.43-6.62-.58S58.47,167.06,57.67,166s-.39-3.66-.39-3.66,8.53,6,12.74,8.05S81.56,176.26,81.56,176.26Z"/><path class="c" d="M85.38,174.46s2-1.24-6-5.69-20.77-11-21.75-9.77a2.53,2.53,0,0,0-.14,2.69S68,169.16,72.6,171.35s8.83,4.51,10.84,4.63S85.38,174.46,85.38,174.46Z"/><path class="d" d="M82.84,176.74a4.09,4.09,0,0,0,3.86-2.22,3.57,3.57,0,0,0,.27-2.9,3.46,3.46,0,0,0-.72-1.05.76.76,0,0,0,0-.11A9.25,9.25,0,0,0,85,163.88c-1.17-1.7-5.85-4.45-9.5-6.28-2.45-1.23-8.41-4.05-11-3.66s-3.69,1.56-4.11,2.37a2.56,2.56,0,0,0-.28.81,3.78,3.78,0,0,0-3.45,1.71,3.19,3.19,0,0,0,.44,3.33.77.77,0,0,0-.1.14,6.67,6.67,0,0,0,.73,6.19c1.33,1.71,13.28,8.21,18,10C80.13,180.18,82.15,177.85,82.84,176.74ZM64.75,155.45c3.24-.5,17.15,6.69,19,9.3a7.47,7.47,0,0,1,1.16,4.58c-5.39-4.22-19.16-10.49-23.24-11.9a.76.76,0,0,0,0-.12C61.65,157.26,61.89,155.89,64.75,155.45ZM58,159.54a2.52,2.52,0,0,1,2.4-.87c.86.1,6.65,2.52,12.89,5.66,8.41,4.23,11.82,6.82,12.2,7.83a2.08,2.08,0,0,1-.19,1.65,2.59,2.59,0,0,1-2.81,1.36c-2.54-.41-20.29-9.41-23.43-12.95C58.09,161.1,57.72,160.15,58,159.54Zm.92,8a5.38,5.38,0,0,1-.76-4c3.44,3.42,18.23,11.22,23,12.88-.65.79-2.09,1.76-4.9.69C71.32,175.17,59.92,168.78,59,167.54Z"/><path class="e" d="M69.83,167.9a2.82,2.82,0,0,0,1.17,2,1.78,1.78,0,0,0,1.92,0c.72-.4.92-1.32,1.59-1.76s.4,1.19.4,1.46a2.39,2.39,0,0,0,.71,1.69,2.7,2.7,0,0,0,3.32.44c.64-.41,1.09-1.61,2-.94s.52,1.73.38,2.52,1,1,1.16.25c.26-1.51.27-3.24-1.3-4a1.82,1.82,0,0,0-1.89.21c-.62.46-.86,1.16-1.72,1.16a1.63,1.63,0,0,1-1.34-.84c-.31-.54,0-1.39-.09-2a1.43,1.43,0,0,0-1.16-1.21,2,2,0,0,0-1.82.94c-.46.61-.9,1.61-1.72.82-.63-.61-.49-1.89-.64-2.69a2.17,2.17,0,0,0-3.11-1.77c-.52.29-.88.82-1.38,1.14-.95.59-1-1.56-1-2-.07-1.32-1.24-2.95-2.7-2.06a2.38,2.38,0,0,0-.69.81c-.16.25-.3.8-.61.51a3.89,3.89,0,0,1-.93-2.71c0-.77-1.19-.71-1.19.06,0,1.39.58,3.49,2.06,4,.57.18,1.12-.31,1.4-.74.17-.26.31-.54.5-.78.31-.39.73.05.86.38a23.09,23.09,0,0,1,.31,2.38A1.92,1.92,0,0,0,66,166.6a2.25,2.25,0,0,0,1.53-.7c.53-.46,1-1.16,1.72-.5S69.7,167.13,69.83,167.9Z"/><path class="b" d="M395.61,102.65a13.76,13.76,0,0,0-7.46,1.37c-3.82,1.91-13.13,10.25-13.62,11.79s-1,3.51-1,3.51l1,.78s12-10.54,15.64-13.12A45.6,45.6,0,0,0,395.61,102.65Z"/><path class="b" d="M400,108.68s.5,2.32-3.29,5.77S382,125.8,380.64,126.07s-3.49-1.18-3.49-1.18,9-5.25,12.64-8.2S400,108.68,400,108.68Z"/><path class="c" d="M400,104.45s-.28-2.37-7.68,3.09-18.67,14.27-18,15.67a2.53,2.53,0,0,0,2.39,1.26s11.17-6.42,15.09-9.7,7.79-6.13,8.74-7.9S400,104.45,400,104.45Z"/><path class="d" d="M401,107.72a4.09,4.09,0,0,0-.4-4.43,3.57,3.57,0,0,0-2.52-1.46,3.46,3.46,0,0,0-1.26.22l-.08-.08a9.25,9.25,0,0,0-6.52-1.56c-2,.35-6.49,3.45-9.68,6-2.14,1.71-7.2,5.94-7.91,8.41s-.12,4,.44,4.73a2.56,2.56,0,0,0,.62.59,3.78,3.78,0,0,0,.11,3.85,3.19,3.19,0,0,0,3.21,1,.77.77,0,0,0,.09.15A6.67,6.67,0,0,0,383,127c2.11-.49,13-8.62,16.66-12.19C403,111.62,401.69,108.81,401,107.72Zm-26.9,7.52c.9-3.15,13.25-12.78,16.37-13.32a7.47,7.47,0,0,1,4.65.86c-6.09,3.13-17.54,13-20.53,16.13l-.1-.07S373.27,118,374.06,115.24ZM375,123a2.52,2.52,0,0,1,.21-2.55c.45-.74,5.07-5,10.53-9.34,7.36-5.87,11.14-7.88,12.22-7.8a2.08,2.08,0,0,1,1.42.86,2.59,2.59,0,0,1,.06,3.13c-1.44,2.14-17,14.49-21.56,15.86C376.41,123.65,375.39,123.59,375,123Zm7.65,2.51a5.38,5.38,0,0,1-4-1c4.55-1.69,17.82-11.86,21.34-15.53.45.92.73,2.63-1.42,4.74C394.72,117.52,384.15,125.2,382.62,125.56Z"/><path class="e" d="M387.5,115.84a2.82,2.82,0,0,0,2.28-.24,1.78,1.78,0,0,0,.84-1.73c-.06-.82-.81-1.38-.93-2.18s1.25.13,1.49.25A2.39,2.39,0,0,0,393,112a2.7,2.7,0,0,0,1.79-2.83c-.1-.76-1-1.66,0-2.18s1.79.25,2.45.71,1.35-.52.72-1c-1.26-.86-2.83-1.6-4.18-.49a1.82,1.82,0,0,0-.6,1.81c.16.75.69,1.27.34,2.05a1.63,1.63,0,0,1-1.32.87c-.62.06-1.26-.59-1.84-.75a1.43,1.43,0,0,0-1.59.55,2,2,0,0,0,.1,2c.36.67,1.09,1.49,0,1.9-.82.31-1.92-.34-2.71-.54a2.17,2.17,0,0,0-2.91,2.09c0,.6.38,1.14.46,1.73.14,1.11-1.82.22-2.23.06-1.23-.49-3.2-.11-3,1.59a2.38,2.38,0,0,0,.44,1c.16.25.6.61.21.77a3.89,3.89,0,0,1-2.85-.29c-.7-.32-1.14.78-.45,1.1,1.26.58,3.41.93,4.46-.22a1.35,1.35,0,0,0-.09-1.58c-.16-.26-.36-.5-.5-.78-.23-.45.35-.64.7-.62.78,0,1.51.59,2.29.72a1.92,1.92,0,0,0,2-.91,2.25,2.25,0,0,0,0-1.68c-.2-.68-.62-1.43.26-1.77S386.74,115.63,387.5,115.84Z"/><path class="b" d="M353.58,229a13.76,13.76,0,0,0-7.5-1.12c-4.23.57-15.74,5.45-16.7,6.74s-2.12,3-2.12,3l.72,1.08s14.72-6.1,19-7.35A45.6,45.6,0,0,0,353.58,229Z"/><path class="b" d="M355.78,236.18s-.28,2.36-5,4.39-17.61,6-19,5.79-2.92-2.25-2.92-2.25,10.2-2.06,14.62-3.66S355.78,236.18,355.78,236.18Z"/><path class="c" d="M357.12,232.16s.5-2.33-8.27.43-22.28,7.45-22.08,9a2.53,2.53,0,0,0,1.85,2s12.65-2.46,17.42-4.29,9.35-3.28,10.83-4.65S357.12,232.16,357.12,232.16Z"/><path class="d" d="M357,235.58a4.09,4.09,0,0,0,1.05-4.33,3.57,3.57,0,0,0-1.92-2.2,3.46,3.46,0,0,0-1.26-.2l-.06-.1a9.25,9.25,0,0,0-5.66-3.59c-2-.32-7.25,1.17-11.1,2.54-2.58.92-8.74,3.29-10.21,5.4s-1.41,3.75-1.12,4.62a2.56,2.56,0,0,0,.39.76,3.78,3.78,0,0,0-1.14,3.68,3.19,3.19,0,0,0,2.71,2,.77.77,0,0,0,0,.17,6.67,6.67,0,0,0,5,3.74c2.15.21,15.11-3.94,19.71-6.13C357.63,239.91,357.35,236.84,357,235.58ZM329.12,234c1.87-2.69,16.67-7.8,19.81-7.3A7.47,7.47,0,0,1,353,229c-6.77,1-20.81,6.63-24.65,8.61l-.07-.1S327.47,236.35,329.12,234Zm-1.67,7.68a2.52,2.52,0,0,1,1-2.34c.66-.55,6.41-3.07,13-5.42,8.87-3.17,13.09-3.85,14.09-3.43a2.08,2.08,0,0,1,1.06,1.28,2.59,2.59,0,0,1-1,3c-2.05,1.56-20.81,8.2-25.54,8C328.62,242.7,327.67,242.31,327.45,241.66Zm6.43,4.85a5.38,5.38,0,0,1-3.44-2.23c4.85-.13,20.7-5.45,25.22-7.78.12,1-.16,2.73-2.88,4C347.93,242.83,335.43,246.67,333.88,246.51Z"/><path class="e" d="M341.64,238.9a2.82,2.82,0,0,0,2.23.51,1.78,1.78,0,0,0,1.36-1.36c.21-.79-.32-1.57-.18-2.37s1.14.53,1.33.72a2.39,2.39,0,0,0,1.71.65,2.7,2.7,0,0,0,2.61-2.1c.15-.75-.41-1.9.68-2.07.93-.14,1.61.82,2.09,1.46s1.44-.05,1-.67c-.91-1.23-2.16-2.43-3.8-1.82a1.82,1.82,0,0,0-1.15,1.52c-.1.76.24,1.43-.35,2a1.63,1.63,0,0,1-1.53.39c-.6-.15-1-1-1.5-1.31a1.43,1.43,0,0,0-1.68,0,2,2,0,0,0-.57,2c.12.75.54,1.77-.59,1.8-.87,0-1.71-.95-2.39-1.39a2.17,2.17,0,0,0-3.43,1c-.15.58,0,1.2-.13,1.79-.22,1.1-1.8-.38-2.13-.66-1-.86-3-1.14-3.36.53a2.38,2.38,0,0,0,.11,1.06c.07.29.37.77-.05.79a3.89,3.89,0,0,1-2.6-1.2c-.56-.53-1.34.37-.78.9,1,1,2.93,2,4.29,1.24.53-.29.55-1,.43-1.52-.07-.3-.18-.59-.22-.9-.07-.5.54-.49.87-.36.73.29,1.23,1.05,1.93,1.42a1.92,1.92,0,0,0,2.2-.21,2.25,2.25,0,0,0,.55-1.59c0-.7-.12-1.55.82-1.59S341,238.46,341.64,238.9Z"/><path class="b" d="M50,15.29l-24.44,15L52.7,34.62,51.06,15.77Zm-17.29,14a3.27,3.27,0,0,1-2-1.16,11.34,11.34,0,0,0,5.53-.24S34,29.57,32.67,29.33ZM44.6,31.64a3.27,3.27,0,0,1-2-1.16,11.34,11.34,0,0,0,5.53-.24S46,31.88,44.6,31.64Zm-.46-8.29a3.27,3.27,0,0,1-2-1.16A11.34,11.34,0,0,0,47.66,22S45.49,23.59,44.14,23.35Z"/><path class="e" d="M53,33.73a2,2,0,0,1,3.26-.15c1.7,1.84-2.52-18.6-2.52-18.6l-1.13-.67L51.48,15.4Z"/><path class="d" d="M56.34,37.57a3.91,3.91,0,0,1-3-.18,3.65,3.65,0,0,1-1.75-2.61v-.05L49.85,15.25l.08-.23a3.43,3.43,0,0,1,2.2-2.23A3.11,3.11,0,0,1,55.06,14l-1.7,1.57c-.5-.54-.75-.56-.75-.55h0a1.2,1.2,0,0,0-.41.52l1.65,18.91a1.37,1.37,0,0,0,.57.88c.43.23,1.7.5,1.41-1.18l1.73,2.92A8.11,8.11,0,0,1,56.34,37.57Z"/><path class="d" d="M56.35,39a2.45,2.45,0,0,1-1.11.06L24.35,32.47l-.23-.2a2.45,2.45,0,0,1,.46-4l1-.53L51.72,12.86a2.45,2.45,0,0,1,3.64,1.82l2.73,21.63A2.46,2.46,0,0,1,56.35,39Zm-30.73-8.6,30.06,6.38h0l.06,0a.13.13,0,0,0,0-.11L53.06,15a.13.13,0,0,0-.07-.1.13.13,0,0,0-.13,0L26.7,29.77l-1,.55A.13.13,0,0,0,25.61,30.38Z"/><path class="d" d="M36.57,24h0a4.44,4.44,0,0,0-3.43-.64,7,7,0,0,0-2.28.59,2.69,2.69,0,0,0-1.44,1.89,3.81,3.81,0,0,0,.84,3.2,3.45,3.45,0,0,0,1.19,1,3.22,3.22,0,0,0,2.48.14l.06,0,.34-.1c1.13-.33,2.69-.78,3.26-2a2.91,2.91,0,0,0,.16-1.58A3.67,3.67,0,0,0,36.57,24Zm0,2.57a1.71,1.71,0,0,1-.06.91,2.12,2.12,0,0,1-1.16.92,4.58,4.58,0,0,1-2.66.93,2.86,2.86,0,0,1-1.76-1l.45.08-.12-.14a2.6,2.6,0,0,1-.61-2.12,1.46,1.46,0,0,1,.8-1.1,3.58,3.58,0,0,1,.6-.23,8.14,8.14,0,0,1,1.29-.24,3.35,3.35,0,0,1,2.5.37A2.56,2.56,0,0,1,36.52,26.55Z"/><path class="c" d="M35.62,24.11a3.36,3.36,0,0,0-2.7,0,5.48,5.48,0,0,0-1.76.78,2.33,2.33,0,0,0-1,1.64,3.11,3.11,0,0,0,1.06,2.35,2.61,2.61,0,0,0,1,.59,2.88,2.88,0,0,0,2.1-.32c.88-.44,2.29-1,2.56-2.11a2.23,2.23,0,0,0-.1-1.16A3,3,0,0,0,35.62,24.11Zm-3,5.2a2.81,2.81,0,0,1-1.73-1,9.75,9.75,0,0,0,4.76-.2S33.83,29.52,32.66,29.31Z"/><path class="d" d="M48.07,18h0a4.44,4.44,0,0,0-3.43-.64,7,7,0,0,0-2.28.59,2.69,2.69,0,0,0-1.44,1.89,3.81,3.81,0,0,0,.84,3.2,3.45,3.45,0,0,0,1.19,1,3.22,3.22,0,0,0,2.48.14l.06,0,.34-.1c1.13-.33,2.69-.78,3.26-2a2.91,2.91,0,0,0,.16-1.58A3.67,3.67,0,0,0,48.07,18Zm0,2.57a1.71,1.71,0,0,1-.06.91,2.12,2.12,0,0,1-1.16.92,4.58,4.58,0,0,1-2.66.93,2.86,2.86,0,0,1-1.76-1l.45.08-.12-.14a2.6,2.6,0,0,1-.61-2.12,1.46,1.46,0,0,1,.8-1.1,3.58,3.58,0,0,1,.6-.23,8.14,8.14,0,0,1,1.29-.24,3.35,3.35,0,0,1,2.5.37A2.56,2.56,0,0,1,48,20.54Z"/><path class="c" d="M47.12,18.09a3.36,3.36,0,0,0-2.7,0,5.48,5.48,0,0,0-1.76.78,2.33,2.33,0,0,0-1,1.64,3.11,3.11,0,0,0,1.06,2.35,2.61,2.61,0,0,0,1,.59,2.88,2.88,0,0,0,2.1-.32c.88-.44,2.29-1,2.56-2.11a2.23,2.23,0,0,0-.1-1.16A3,3,0,0,0,47.12,18.09Zm-3,5.2a2.81,2.81,0,0,1-1.73-1,9.75,9.75,0,0,0,4.76-.2S45.33,23.5,44.16,23.29Z"/><path class="d" d="M48.51,26.31h0a4.44,4.44,0,0,0-3.43-.64,7,7,0,0,0-2.28.59,2.69,2.69,0,0,0-1.44,1.89,3.81,3.81,0,0,0,.84,3.2,3.45,3.45,0,0,0,1.19,1,3.22,3.22,0,0,0,2.48.14l.06,0,.34-.1c1.13-.33,2.69-.78,3.26-2a2.91,2.91,0,0,0,.16-1.58A3.67,3.67,0,0,0,48.51,26.31Zm0,2.57a1.71,1.71,0,0,1-.06.91,2.12,2.12,0,0,1-1.16.92,4.58,4.58,0,0,1-2.66.93,2.86,2.86,0,0,1-1.76-1l.45.08-.12-.14a2.6,2.6,0,0,1-.61-2.12,1.46,1.46,0,0,1,.8-1.1,3.58,3.58,0,0,1,.6-.23,8.14,8.14,0,0,1,1.29-.24,3.35,3.35,0,0,1,2.5.37A2.56,2.56,0,0,1,48.46,28.88Z"/><path class="c" d="M47.56,26.43a3.36,3.36,0,0,0-2.7,0,5.48,5.48,0,0,0-1.76.78,2.33,2.33,0,0,0-1,1.64,3.11,3.11,0,0,0,1.06,2.35,2.61,2.61,0,0,0,1,.59,2.88,2.88,0,0,0,2.1-.32c.88-.44,2.29-1,2.56-2.11a2.23,2.23,0,0,0-.1-1.16A3,3,0,0,0,47.56,26.43Zm-3,5.2a2.81,2.81,0,0,1-1.73-1,9.75,9.75,0,0,0,4.76-.2S45.77,31.84,44.6,31.64Z"/><path class="b" d="M408.46,284.29l-28-6.17,16.56,22,11.91-14.71Zm-22.19-1.9a3.27,3.27,0,0,1-.64-2.23,11.34,11.34,0,0,0,4.15,3.67S387.08,283.5,386.27,282.38Zm7,9.94a3.27,3.27,0,0,1-.64-2.23,11.34,11.34,0,0,0,4.15,3.67S394.06,293.44,393.26,292.33Zm5.42-6.28a3.27,3.27,0,0,1-.64-2.23,11.34,11.34,0,0,0,4.15,3.67S399.49,287.15,398.68,286Z"/><path class="e" d="M397.85,299.66a2,2,0,0,1,2.44,2.15c-.05,2.5,11.11-15.13,11.11-15.13l-.35-1.26h-1.57Z"/><path class="d" d="M397.59,304.75a3.91,3.91,0,0,1-2.07-2.24,3.65,3.65,0,0,1,.56-3.1l0,0,12.3-15.19.21-.11a3.43,3.43,0,0,1,3.13-.08,3.11,3.11,0,0,1,1.25,2.93l-2.31,0c0-.74-.16-.92-.16-.92h0a1.2,1.2,0,0,0-.65.09l-11.94,14.75a1.37,1.37,0,0,0-.2,1c.15.46.87,1.54,1.83.13l-.79,3.3A8.11,8.11,0,0,1,397.59,304.75Z"/><path class="d" d="M396.62,305.76a2.45,2.45,0,0,1-.84-.73L378.1,278.87l0-.3a2.45,2.45,0,0,1,3.11-2.56l1.09.31,29.14,7.44a2.45,2.45,0,0,1,1.36,3.84l-13.05,17.47a2.46,2.46,0,0,1-3.1.7Zm-16.15-27.52,17.2,25.46h0l.07,0a.13.13,0,0,0,.11-.05l13.05-17.47a.13.13,0,0,0,0-.13.13.13,0,0,0-.09-.09l-29.17-7.44-1.12-.32A.13.13,0,0,0,380.47,278.24Z"/><path class="d" d="M392.79,281.24h0a4.44,4.44,0,0,0-2-2.84,7,7,0,0,0-2.05-1.16,2.69,2.69,0,0,0-2.35.36,3.81,3.81,0,0,0-1.62,2.89,3.45,3.45,0,0,0,.19,1.51,3.22,3.22,0,0,0,1.69,1.83l.05,0,.31.16c1,.55,2.48,1.31,3.76.8a2.91,2.91,0,0,0,1.21-1A3.67,3.67,0,0,0,392.79,281.24ZM391,283.06a1.71,1.71,0,0,1-.68.61,2.12,2.12,0,0,1-1.47-.15,4.58,4.58,0,0,1-2.56-1.18,2.86,2.86,0,0,1-.56-1.95s.09.14.27.37c0-.06,0-.12,0-.18a2.6,2.6,0,0,1,1-1.95,1.46,1.46,0,0,1,1.34-.24,3.58,3.58,0,0,1,.59.25,8.14,8.14,0,0,1,1.09.72,3.35,3.35,0,0,1,1.54,2A2.56,2.56,0,0,1,391,283.06Z"/><path class="c" d="M392,280.67a3.36,3.36,0,0,0-1.91-1.9,5.48,5.48,0,0,0-1.81-.66,2.33,2.33,0,0,0-1.85.5,3.11,3.11,0,0,0-.86,2.43,2.61,2.61,0,0,0,.3,1.11,2.88,2.88,0,0,0,1.73,1.23c.94.29,2.36.86,3.31.26a2.23,2.23,0,0,0,.74-.91A3,3,0,0,0,392,280.67Zm-5.74,1.69a2.81,2.81,0,0,1-.55-1.92,9.75,9.75,0,0,0,3.56,3.16S387,283.32,386.28,282.37Z"/><path class="d" d="M405.25,284.9h0a4.44,4.44,0,0,0-2-2.84,7,7,0,0,0-2.05-1.16,2.69,2.69,0,0,0-2.35.36,3.81,3.81,0,0,0-1.62,2.89,3.45,3.45,0,0,0,.19,1.51,3.22,3.22,0,0,0,1.69,1.83l.05,0,.31.16c1,.55,2.48,1.31,3.76.8a2.91,2.91,0,0,0,1.21-1A3.67,3.67,0,0,0,405.25,284.9Zm-1.82,1.82a1.71,1.71,0,0,1-.68.61,2.12,2.12,0,0,1-1.47-.15,4.58,4.58,0,0,1-2.56-1.18,2.86,2.86,0,0,1-.56-1.95s.09.14.27.37c0-.06,0-.12,0-.18a2.6,2.6,0,0,1,1-1.95,1.46,1.46,0,0,1,1.34-.24,3.58,3.58,0,0,1,.59.25,8.14,8.14,0,0,1,1.09.72,3.35,3.35,0,0,1,1.54,2A2.56,2.56,0,0,1,403.43,286.72Z"/><path class="c" d="M404.47,284.33a3.36,3.36,0,0,0-1.91-1.9,5.48,5.48,0,0,0-1.81-.66,2.33,2.33,0,0,0-1.85.5,3.11,3.11,0,0,0-.86,2.43,2.61,2.61,0,0,0,.3,1.11,2.88,2.88,0,0,0,1.73,1.23c.94.29,2.36.86,3.31.26a2.23,2.23,0,0,0,.74-.91A3,3,0,0,0,404.47,284.33ZM398.74,286a2.81,2.81,0,0,1-.55-1.92,9.75,9.75,0,0,0,3.56,3.16S399.43,287,398.74,286Z"/><path class="d" d="M399.77,291.21h0a4.44,4.44,0,0,0-2-2.84,7,7,0,0,0-2.05-1.16,2.69,2.69,0,0,0-2.35.36,3.81,3.81,0,0,0-1.62,2.89,3.45,3.45,0,0,0,.19,1.51,3.22,3.22,0,0,0,1.69,1.83l.05,0,.31.16c1,.55,2.48,1.31,3.76.8a2.91,2.91,0,0,0,1.21-1A3.67,3.67,0,0,0,399.77,291.21ZM398,293a1.71,1.71,0,0,1-.68.61,2.12,2.12,0,0,1-1.47-.15,4.58,4.58,0,0,1-2.56-1.18,2.86,2.86,0,0,1-.56-1.95s.09.14.27.37c0-.06,0-.12,0-.18a2.6,2.6,0,0,1,1-1.95,1.46,1.46,0,0,1,1.34-.24,3.58,3.58,0,0,1,.59.25,8.14,8.14,0,0,1,1.09.72,3.35,3.35,0,0,1,1.54,2A2.56,2.56,0,0,1,398,293Z"/><path class="c" d="M399,290.64a3.36,3.36,0,0,0-1.91-1.9,5.48,5.48,0,0,0-1.81-.66,2.33,2.33,0,0,0-1.85.5,3.11,3.11,0,0,0-.86,2.43,2.61,2.61,0,0,0,.3,1.11,2.88,2.88,0,0,0,1.73,1.23c.94.29,2.36.86,3.31.26a2.23,2.23,0,0,0,.74-.91A3,3,0,0,0,399,290.64Zm-5.74,1.69a2.81,2.81,0,0,1-.55-1.92,9.75,9.75,0,0,0,3.56,3.16S394,293.28,393.26,292.33Z"/><path class="b" d="M54.24,248l-16,23.81,26.51-7.37L55.43,248Zm-9.89,20a3.27,3.27,0,0,1-2.31-.22A11.34,11.34,0,0,0,47,265.22S45.68,267.61,44.35,268Zm11.81-2.86a3.27,3.27,0,0,1-2.31-.22,11.34,11.34,0,0,0,4.93-2.51S57.49,264.75,56.16,265.1Zm-3.86-7.35a3.27,3.27,0,0,1-2.31-.22A11.34,11.34,0,0,0,54.92,255S53.62,257.41,52.29,257.75Z"/><path class="e" d="M64.67,263.51a2,2,0,0,1,2.9-1.49c2.31,1-10-15.87-10-15.87l-1.3-.14-.58,1.46Z"/><path class="d" d="M69.3,265.61a3.91,3.91,0,0,1-2.84,1.1,3.65,3.65,0,0,1-2.68-1.65l0,0-9.63-17,0-.24a3.43,3.43,0,0,1,1.07-2.94,3.11,3.11,0,0,1,3.19-.09l-.89,2.14c-.68-.28-.92-.19-.92-.19h0a1.2,1.2,0,0,0-.15.64l9.35,16.51a1.37,1.37,0,0,0,.88.56c.49,0,1.75-.25.79-1.66l2.79,1.94A8.11,8.11,0,0,1,69.3,265.61Z"/><path class="d" d="M69.89,266.88a2.45,2.45,0,0,1-1,.51l-30.82,6.87-.29-.09a2.45,2.45,0,0,1-1.24-3.83l.68-.9,17.59-24.4a2.45,2.45,0,0,1,4.07.14l11.48,18.54a2.46,2.46,0,0,1-.48,3.14Zm-31.53,5,30-6.69h0a.15.15,0,0,0,0-.06.13.13,0,0,0,0-.12L56.93,246.42a.13.13,0,0,0-.11-.06.13.13,0,0,0-.11.06L39.1,270.83l-.7.92A.13.13,0,0,0,38.37,271.84Z"/><path class="d" d="M45.67,261.47h0a4.44,4.44,0,0,0-3.38.84,7,7,0,0,0-1.83,1.48,2.69,2.69,0,0,0-.53,2.32A3.81,3.81,0,0,0,42,268.67a3.45,3.45,0,0,0,1.48.38,3.22,3.22,0,0,0,2.32-.9l0,0,.27-.23c.89-.77,2.13-1.83,2.12-3.2a2.91,2.91,0,0,0-.51-1.5A3.67,3.67,0,0,0,45.67,261.47Zm1,2.36a1.71,1.71,0,0,1,.32.86,2.12,2.12,0,0,1-.68,1.32c-.4.63-1.21,1.74-2,2a2.86,2.86,0,0,1-2-.19l.45-.11-.17-.07a2.6,2.6,0,0,1-1.43-1.68,1.46,1.46,0,0,1,.27-1.33,3.58,3.58,0,0,1,.45-.46,8.14,8.14,0,0,1,1.07-.75,3.35,3.35,0,0,1,2.42-.7A2.56,2.56,0,0,1,46.7,263.83Z"/><path class="c" d="M44.86,262a3.36,3.36,0,0,0-2.47,1.09,5.48,5.48,0,0,0-1.27,1.45,2.33,2.33,0,0,0-.21,1.9,3.11,3.11,0,0,0,1.94,1.69,2.61,2.61,0,0,0,1.14.13,2.88,2.88,0,0,0,1.77-1.16c.62-.77,1.66-1.88,1.45-3a2.23,2.23,0,0,0-.57-1A3,3,0,0,0,44.86,262Zm-.52,6a2.81,2.81,0,0,1-2-.19,9.75,9.75,0,0,0,4.24-2.16S45.48,267.64,44.34,267.94Z"/><path class="d" d="M53.63,251.22h0a4.44,4.44,0,0,0-3.38.84,7,7,0,0,0-1.83,1.48,2.69,2.69,0,0,0-.53,2.32A3.81,3.81,0,0,0,50,258.42a3.45,3.45,0,0,0,1.48.38,3.22,3.22,0,0,0,2.32-.9l0,0,.27-.23c.89-.77,2.13-1.83,2.12-3.2a2.91,2.91,0,0,0-.51-1.5A3.67,3.67,0,0,0,53.63,251.22Zm1,2.36a1.71,1.71,0,0,1,.32.86,2.12,2.12,0,0,1-.68,1.32c-.4.63-1.21,1.74-2,2a2.86,2.86,0,0,1-2-.19l.45-.11-.17-.07a2.6,2.6,0,0,1-1.43-1.68,1.46,1.46,0,0,1,.27-1.33,3.58,3.58,0,0,1,.45-.46,8.14,8.14,0,0,1,1.07-.75,3.35,3.35,0,0,1,2.42-.7A2.56,2.56,0,0,1,54.66,253.57Z"/><path class="c" d="M52.82,251.73a3.36,3.36,0,0,0-2.47,1.09,5.48,5.48,0,0,0-1.27,1.45,2.33,2.33,0,0,0-.21,1.9,3.11,3.11,0,0,0,1.94,1.69,2.61,2.61,0,0,0,1.14.13,2.88,2.88,0,0,0,1.77-1.16c.62-.77,1.66-1.88,1.45-3a2.23,2.23,0,0,0-.57-1A3,3,0,0,0,52.82,251.73Zm-.52,6a2.81,2.81,0,0,1-2-.19,9.75,9.75,0,0,0,4.24-2.16S53.44,257.39,52.3,257.69Z"/><path class="d" d="M57.5,258.62h0a4.44,4.44,0,0,0-3.38.84,7,7,0,0,0-1.83,1.48,2.69,2.69,0,0,0-.53,2.32,3.81,3.81,0,0,0,2.09,2.56,3.45,3.45,0,0,0,1.48.38,3.22,3.22,0,0,0,2.32-.9l0,0L58,265c.89-.77,2.13-1.83,2.12-3.2a2.91,2.91,0,0,0-.51-1.5A3.67,3.67,0,0,0,57.5,258.62Zm1,2.36a1.71,1.71,0,0,1,.32.86,2.12,2.12,0,0,1-.68,1.32c-.4.63-1.21,1.74-2,2a2.86,2.86,0,0,1-2-.19l.45-.11-.17-.07A2.6,2.6,0,0,1,53,263.05a1.46,1.46,0,0,1,.27-1.33,3.58,3.58,0,0,1,.45-.46,8.14,8.14,0,0,1,1.07-.75,3.35,3.35,0,0,1,2.42-.7A2.56,2.56,0,0,1,58.53,261Z"/><path class="c" d="M56.69,259.13a3.36,3.36,0,0,0-2.47,1.09,5.48,5.48,0,0,0-1.27,1.45,2.33,2.33,0,0,0-.21,1.9,3.11,3.11,0,0,0,1.94,1.69,2.61,2.61,0,0,0,1.14.13,2.88,2.88,0,0,0,1.77-1.16c.62-.77,1.66-1.88,1.45-3a2.23,2.23,0,0,0-.57-1A3,3,0,0,0,56.69,259.13Zm-.52,6a2.81,2.81,0,0,1-2-.19,9.75,9.75,0,0,0,4.24-2.16S57.31,264.8,56.16,265.09Z"/><path class="b" d="M335.49,136.39l-28-6.35,16.42,22.08,12-14.63Zm-22.18-2a3.27,3.27,0,0,1-.63-2.23,11.34,11.34,0,0,0,4.12,3.7S314.12,135.46,313.31,134.35Zm6.92,10a3.27,3.27,0,0,1-.63-2.23,11.34,11.34,0,0,0,4.12,3.7S321,145.45,320.23,144.33Zm5.46-6.25a3.27,3.27,0,0,1-.63-2.23,11.34,11.34,0,0,0,4.12,3.7S326.5,139.2,325.69,138.08Z"/><path class="e" d="M324.78,151.7a2,2,0,0,1,2.43,2.17c-.07,2.5,11.2-15.06,11.2-15.06l-.34-1.26-1.57,0Z"/><path class="d" d="M324.49,156.78a3.91,3.91,0,0,1-2.05-2.25,3.65,3.65,0,0,1,.58-3.09l0,0,12.39-15.11.21-.11a3.43,3.43,0,0,1,3.13-.06,3.11,3.11,0,0,1,1.23,2.94L337.7,139c0-.74-.15-.92-.15-.92h0a1.2,1.2,0,0,0-.65.09l-12,14.67a1.37,1.37,0,0,0-.21,1c.15.46.86,1.55,1.83.14l-.81,3.3A8.11,8.11,0,0,1,324.49,156.78Z"/><path class="d" d="M323.51,157.79a2.45,2.45,0,0,1-.83-.73l-17.51-26.28,0-.3a2.45,2.45,0,0,1,3.13-2.54l1.09.32,29.1,7.62a2.45,2.45,0,0,1,1.33,3.85L326.62,157.1a2.46,2.46,0,0,1-3.11.69Zm-16-27.63,17,25.57h0l.07,0a.13.13,0,0,0,.11-.05l13.16-17.38a.13.13,0,0,0,0-.13.13.13,0,0,0-.09-.09l-29.13-7.63-1.12-.32A.13.13,0,0,0,307.54,130.16Z"/><path class="d" d="M319.84,133.25h0a4.44,4.44,0,0,0-2-2.85,7,7,0,0,0-2-1.18,2.69,2.69,0,0,0-2.35.34,3.81,3.81,0,0,0-1.63,2.88A3.45,3.45,0,0,0,312,134a3.22,3.22,0,0,0,1.67,1.84l.05,0,.31.17c1,.56,2.47,1.32,3.75.82a2.91,2.91,0,0,0,1.22-1A3.67,3.67,0,0,0,319.84,133.25ZM318,135.05a1.71,1.71,0,0,1-.68.61,2.12,2.12,0,0,1-1.47-.16,4.58,4.58,0,0,1-2.56-1.19,2.86,2.86,0,0,1-.55-2s.09.14.27.38c0-.06,0-.12,0-.18a2.6,2.6,0,0,1,1-1.94,1.46,1.46,0,0,1,1.34-.23,3.58,3.58,0,0,1,.59.25,8.14,8.14,0,0,1,1.09.73,3.35,3.35,0,0,1,1.53,2A2.56,2.56,0,0,1,318,135.05Z"/><path class="c" d="M319.07,132.67a3.36,3.36,0,0,0-1.9-1.92,5.48,5.48,0,0,0-1.81-.67,2.33,2.33,0,0,0-1.85.49,3.11,3.11,0,0,0-.88,2.42,2.61,2.61,0,0,0,.29,1.11,2.88,2.88,0,0,0,1.72,1.24c.94.3,2.35.87,3.31.28a2.23,2.23,0,0,0,.74-.9A3,3,0,0,0,319.07,132.67Zm-5.75,1.66a2.81,2.81,0,0,1-.54-1.92,9.75,9.75,0,0,0,3.54,3.18S314,135.29,313.32,134.33Z"/><path class="d" d="M332.27,137h0a4.44,4.44,0,0,0-2-2.85,7,7,0,0,0-2-1.18,2.69,2.69,0,0,0-2.35.34,3.81,3.81,0,0,0-1.63,2.88,3.45,3.45,0,0,0,.18,1.51,3.22,3.22,0,0,0,1.67,1.84l.05,0,.31.17c1,.56,2.47,1.32,3.75.82a2.91,2.91,0,0,0,1.22-1A3.67,3.67,0,0,0,332.27,137Zm-1.83,1.81a1.71,1.71,0,0,1-.68.61,2.12,2.12,0,0,1-1.47-.16,4.58,4.58,0,0,1-2.56-1.19,2.86,2.86,0,0,1-.55-2s.09.14.27.38c0-.06,0-.12,0-.18a2.6,2.6,0,0,1,1-1.94,1.46,1.46,0,0,1,1.34-.23,3.58,3.58,0,0,1,.59.25,8.14,8.14,0,0,1,1.09.73,3.35,3.35,0,0,1,1.53,2A2.56,2.56,0,0,1,330.44,138.79Z"/><path class="c" d="M331.5,136.4a3.36,3.36,0,0,0-1.9-1.92,5.48,5.48,0,0,0-1.81-.67,2.33,2.33,0,0,0-1.85.49,3.11,3.11,0,0,0-.88,2.42,2.61,2.61,0,0,0,.29,1.11,2.88,2.88,0,0,0,1.72,1.24c.94.3,2.35.87,3.31.28a2.23,2.23,0,0,0,.74-.9A3,3,0,0,0,331.5,136.4Zm-5.75,1.66a2.81,2.81,0,0,1-.54-1.92,9.75,9.75,0,0,0,3.54,3.18S326.44,139,325.75,138.06Z"/><path class="d" d="M326.75,143.25h0a4.44,4.44,0,0,0-2-2.85,7,7,0,0,0-2-1.18,2.69,2.69,0,0,0-2.35.34,3.81,3.81,0,0,0-1.63,2.88,3.45,3.45,0,0,0,.18,1.51,3.22,3.22,0,0,0,1.67,1.84l.05,0,.31.17c1,.56,2.47,1.32,3.75.82a2.91,2.91,0,0,0,1.22-1A3.67,3.67,0,0,0,326.75,143.25Zm-1.83,1.81a1.71,1.71,0,0,1-.68.61,2.12,2.12,0,0,1-1.47-.16,4.58,4.58,0,0,1-2.56-1.19,2.86,2.86,0,0,1-.55-2s.09.14.27.38c0-.06,0-.12,0-.18a2.6,2.6,0,0,1,1-1.94,1.46,1.46,0,0,1,1.34-.23,3.58,3.58,0,0,1,.59.25,8.14,8.14,0,0,1,1.09.73,3.35,3.35,0,0,1,1.53,2A2.56,2.56,0,0,1,324.93,145.06Z"/><path class="c" d="M326,142.68a3.36,3.36,0,0,0-1.9-1.92,5.48,5.48,0,0,0-1.81-.67,2.33,2.33,0,0,0-1.85.49,3.11,3.11,0,0,0-.88,2.42,2.61,2.61,0,0,0,.29,1.11,2.88,2.88,0,0,0,1.72,1.24c.94.3,2.35.87,3.31.28a2.23,2.23,0,0,0,.74-.9A3,3,0,0,0,326,142.68Zm-5.75,1.66a2.81,2.81,0,0,1-.54-1.92,9.75,9.75,0,0,0,3.54,3.18S320.93,145.29,320.24,144.33Z"/><polygon class="a" points="43.06 97.01 46.87 94.2 48.53 95.01 46.46 102.34 48.56 104.03 53.16 105.19 55.35 105.67 56.13 106.3 52.05 108.15 49.09 107.04 46.13 105.93 44.58 104.67 43.02 103.41 42.87 102.01 43.06 97.01"/><path class="b" d="M46.07,82.05s-6.19,9.79-6.9,11.9,2.28,4.8,2.28,4.8L59.35,77.26S55.68,74.77,53.43,75,46.26,80.72,46.07,82.05Z"/><path class="b" d="M51.86,105.32a3.9,3.9,0,0,0,4.83.86C59.5,104.65,68.45,93.59,69,92.11a17.86,17.86,0,0,0,.77-3.28l-2.1-3.42s-1.84.88-1.85,2.49a3.41,3.41,0,0,1-.81,2.7c-.54.63-3.52.94-4,1.34s-.3,2.73-1,3.89-2.55.13-3.1,1.56.26,2.4-.87,3.88S50.3,103.18,51.86,105.32Z"/><path class="f" d="M46.76,94.45a14.26,14.26,0,0,0-.9,3.44c.07.87,6.29-6.58,6.29-6.58A5,5,0,0,0,46.76,94.45Z"/><path class="f" d="M51.17,89.12s4.74-6.82,6.35-6.8,1.51.61,1.51.61l-6.16,8.32S50.18,90.44,51.17,89.12Z"/><path class="c" d="M49.49,94.74S45,100.3,45,101.4s.73,2.8,1.94,2.34S63.41,85.44,63.41,85.44a7.39,7.39,0,0,0,1.82-3.38c.27-1.77-.48-2.75-1.74-2.5S54.22,87,49.49,94.74Z"/><path class="g" d="M46.4,104.73c.35-.25,3.92,1.5,4.61.43s-.05-2.11,1.82-2.55,3.37-1.88,3.24-3.48a3.44,3.44,0,0,1,2.88-3.38c1.46-.11,2.11-2.95,2-3.82s1.4-.84,2.7-1.09,1.54-.85,1.31-2,2.81-4.2,3.83-4.3.3-1.81-.91-2.3a2.41,2.41,0,0,0-2-.06l-6.16,8.32C58.05,92.82,46.4,104.73,46.4,104.73Z"/><path class="d" d="M65.41,80.16a2.77,2.77,0,0,0-1.71-1.33c-.63-.18-1.45,0-2.93,1.38a5.68,5.68,0,0,0-2.55-.35l1.73-2.11a.77.77,0,0,0-.18-1.14c-.17-.11-4.22-2.7-7.3-2.22-.48.07-1.75.27-6.57,5.93-4.18,4.9-9.27,11.9-9.89,13.62-.9,2.47,1.42,5.39,2.67,7,.21.27.4.5.49.63a.77.77,0,0,0,1.23.07h0l2.07-2.53a4.34,4.34,0,0,0,0,2.11,2.58,2.58,0,0,0-.62,2.14,3.39,3.39,0,0,0,2.53,2.2l.26,0a1.33,1.33,0,0,0,0,.85c.22.56.79.86,1.68.89a17.67,17.67,0,0,0,2.7-.06c1,1.21,3.51,2.57,6.79.54,1.9-1.18,5.8-5,9.06-8.86,3-3.52,5.49-7,5.38-8.35,0-.45,0-.81,0-1.14,0-1.37-.08-2.13-1.84-4a1,1,0,0,1,.41-.14,1.11,1.11,0,0,0,1.11-.64c.2-.47,0-1-.49-1.58a6.11,6.11,0,0,0-3.68-1.86A3.26,3.26,0,0,0,65.41,80.16ZM51.14,91.38c-1.62,1.84-3.14,3.49-4.41,4.87-1,1.12-2,2.11-2.7,3a5.77,5.77,0,0,1,.64-1.45C47.22,93.54,49.69,91.12,51.14,91.38Zm1.08-1.24h0a2.67,2.67,0,0,0-.83-.29c2.43-4.1,5.41-8.25,6.36-8.39a6.06,6.06,0,0,1,1.76,0c-.57.6-1.22,1.32-2,2.18-1.16,1.36-2.31,2.79-3.32,4.05-.75.94-1.4,1.75-1.89,2.32ZM37.46,94.47c.51-1.4,5.35-8.16,9.61-13.15s5.51-5.38,5.63-5.4c1.81-.28,4.25.88,5.46,1.55L39.83,99.86C38.82,98.59,36.87,96.09,37.46,94.47Zm5.88,8.4c0-.14.17-.66,1.58-2.31.77-.91,1.78-2,2.95-3.26,1.59-1.72,3.56-3.85,5.64-6.29.5-.59,1.16-1.41,1.92-2.36,1-1.25,2.15-2.68,3.29-4,3.38-4,4.38-4.3,4.58-4.32a1.19,1.19,0,0,1,.75.58,3.38,3.38,0,0,1,0,2.4c-.13.34-1.15,1.85-6.52,8.14-2,2.33-4.15,4.82-5.88,6.81-1.27,1.47-2.37,2.73-3.1,3.59-1.38,1.61-2.74,2.38-3.85,2.15A1.86,1.86,0,0,1,43.35,102.87ZM68.71,89.43c0,.34,0,.75,0,1.26,0,1.78-9.63,13.26-13.71,15.78-2.06,1.27-3.47.8-4.25.25a1.94,1.94,0,0,0,1-1.44,2.73,2.73,0,0,1,2.31-2,2.36,2.36,0,0,0,1.75-.83,4.17,4.17,0,0,0,1.11-2.91c-.07-.92,0-1.32,1.11-1.63a4.28,4.28,0,0,0,3.17-3.69c0-.31.07-.6.09-.86.09-1.16.13-1.16.77-1.13.95,0,2.6,0,3.37-.92l.1-.13a1.69,1.69,0,0,0,.12-1.67,4,4,0,0,1,1-2.29,8.5,8.5,0,0,1,.59-.74C68.71,88,68.71,88.36,68.71,89.43Zm-3.54-2.81c-.54.83-1.39,2.39-.93,3.46a.38.38,0,0,1,0,.18c0,.11-.65.46-2.13.4-2.17-.1-2.3,1.5-2.38,2.56,0,.25,0,.51-.08.76a2.71,2.71,0,0,1-2.06,2.43,2.74,2.74,0,0,0-2.24,3.25,2.7,2.7,0,0,1-.69,1.73,1,1,0,0,1-.6.34A4.22,4.22,0,0,0,50.24,105c-.12.81-2.72.73-3.83.69h-.16a2.06,2.06,0,0,1,.23-.29.78.78,0,0,0,.12-.17,8.15,8.15,0,0,0,3.12-2.43c.73-.86,1.82-2.12,3.1-3.58,1.74-2,3.9-4.49,5.89-6.82,5.72-6.7,6.66-8.13,6.82-8.69a7.31,7.31,0,0,0,.22-1,4.73,4.73,0,0,1,2.33,1.14A7,7,0,0,0,65.17,86.62Z"/><circle class="h" cx="42.23" cy="93.81" r="1.24" transform="translate(-56.53 65.02) rotate(-49.51)"/><circle class="h" cx="45.15" cy="86.25" r="1.24" transform="translate(-49.76 64.59) rotate(-49.51)"/><circle class="h" cx="53.07" cy="80.79" r="1.24" transform="translate(-42.83 68.7) rotate(-49.51)"/><polygon class="a" points="359.84 40.9 364.02 43.13 364 44.98 356.5 46.27 355.87 48.89 356.81 53.54 357.32 55.72 357.09 56.69 353.66 53.81 353.39 50.66 353.12 47.51 353.58 45.57 354.05 43.62 355.25 42.88 359.84 40.9"/><path class="b" d="M374.64,37.17s-11.5-1.36-13.71-1.1-3.35,4.13-3.35,4.13l27.1,6.89s.66-4.38-.54-6.31S375.92,36.77,374.64,37.17Z"/><path class="b" d="M356.13,52.42a3.9,3.9,0,0,0,1.3,4.73c2.6,1.87,16.44,5.18,18,5a17.86,17.86,0,0,0,3.29-.72l2.18-3.37s-1.58-1.28-3-.6a3.41,3.41,0,0,1-2.79.43c-.8-.21-2.36-2.77-2.93-3s-2.59.91-3.94.76-1.22-2.25-2.75-2.12-2,1.27-3.87.89S357.4,50.09,356.13,52.42Z"/><path class="f" d="M363.75,43.13a14.26,14.26,0,0,0-3.49.67c-.76.44,8.65,2.85,8.65,2.85A5,5,0,0,0,363.75,43.13Z"/><path class="f" d="M370.46,44.82s8.19,1.34,8.87,2.8.1,1.63.1,1.63l-10.16-2S368.83,44.49,370.46,44.82Z"/><path class="c" d="M364.66,45.73s-6.94-1.64-7.92-1.16-2.21,1.87-1.27,2.76S379,54.28,379,54.28a7.39,7.39,0,0,0,3.83.18c1.71-.52,2.28-1.62,1.51-2.64S373.71,46.65,364.66,45.73Z"/><path class="g" d="M354.31,47.24c.37.21.33,4.18,1.59,4.34s1.88-1,3.09.54,3.14,2.23,4.54,1.43a3.44,3.44,0,0,1,4.29,1.15c.73,1.26,3.57.63,4.33.2s1.36.9,2.15,2,1.44,1,2.37.31,5,.73,5.53,1.6,1.76-.51,1.68-1.81a2.41,2.41,0,0,0-.8-1.82l-10.16-2C370.08,52.63,354.31,47.24,354.31,47.24Z"/><path class="d" d="M384.68,53.81a2.77,2.77,0,0,0,.46-2.12c-.11-.65-.66-1.29-2.51-2a5.68,5.68,0,0,0-.78-2.45l2.65.65a.77.77,0,0,0,1-.65c0-.2.62-5-1.14-7.54-.27-.4-1-1.46-8.18-3.38-6.22-1.66-14.74-3.24-16.56-3.06-2.61.26-4.25,3.61-5.13,5.41-.15.31-.28.57-.36.71a.77.77,0,0,0,.46,1.15h0l3.18.78a4.34,4.34,0,0,0-1.9.91,2.58,2.58,0,0,0-2.2.36,3.39,3.39,0,0,0-.89,3.23c0,.08,0,.16.07.25a1.33,1.33,0,0,0-.75.4,1.66,1.66,0,0,0-.08,1.9,17.67,17.67,0,0,0,1.21,2.41c-.64,1.46-.81,4.27,2.43,6.36,1.88,1.21,7,3.06,11.91,4.36,4.48,1.2,8.7,1.93,9.85,1.26.39-.22.72-.38,1-.52,1.24-.59,1.89-1,2.8-3.38a1,1,0,0,1,.3.31,1.11,1.11,0,0,0,1.05.73c.51,0,.92-.4,1.21-1.13a6.11,6.11,0,0,0,.09-4.12A3.26,3.26,0,0,0,384.68,53.81Zm-16.28-8c-2.36-.66-4.5-1.33-6.29-1.88-1.46-.45-2.74-.85-3.84-1.16a5.77,5.77,0,0,1,1.58,0C364.76,43.16,368,44.35,368.4,45.77Zm1.59.44h0a2.67,2.67,0,0,0-.1-.88c4.75.43,9.77,1.33,10.31,2.12A6.06,6.06,0,0,1,381,49c-.79-.26-1.71-.53-2.81-.82-1.72-.46-3.51-.88-5.09-1.25-1.17-.27-2.18-.51-2.91-.71ZM359.72,34.75c1.48-.15,9.67,1.32,16,3s7.23,2.66,7.3,2.76c1,1.51,1,4.21,1,5.6l-28.11-6.91C356.59,37.76,358,34.92,359.72,34.75Zm-5.05,8.93c.13-.05.67-.14,2.77.43,1.15.31,2.57.75,4.21,1.26,2.23.69,5,1.56,8.1,2.38.75.2,1.77.44,3,.72,1.57.37,3.34.78,5,1.24,5,1.34,5.76,2.1,5.87,2.27a1.19,1.19,0,0,1-.2.93,3.38,3.38,0,0,1-2.17,1c-.36,0-2.16-.24-10.15-2.38-3-.79-6.13-1.67-8.68-2.37l-4.58-1.25c-2-.55-3.33-1.45-3.6-2.54A1.86,1.86,0,0,1,354.67,43.68Zm23.06,17.1c-.3.14-.68.32-1.12.58-1.6.78-16.11-3-20.15-5.58-2-1.31-2.21-2.79-2.06-3.72a1.94,1.94,0,0,0,1.72.27,2.73,2.73,0,0,1,2.8,1.22,2.36,2.36,0,0,0,1.51,1.22,4.17,4.17,0,0,0,3.1-.26c.8-.46,1.19-.56,2,.3a4.28,4.28,0,0,0,4.7,1.27c.3-.09.57-.2.82-.29,1.09-.42,1.11-.38,1.35.2.37.87,1.14,2.34,2.28,2.64l.16,0a1.69,1.69,0,0,0,1.56-.62,4,4,0,0,1,2.49-.09,8.5,8.5,0,0,1,.92.21C379,60.16,378.7,60.32,377.74,60.78Zm1-4.4c-1-.13-2.75-.22-3.53.65a.38.38,0,0,1-.14.12c-.11,0-.7-.39-1.28-1.75-.85-2-2.34-1.43-3.34-1-.23.09-.47.18-.72.26a2.71,2.71,0,0,1-3.08-.81,2.74,2.74,0,0,0-3.89-.62,2.7,2.7,0,0,1-1.86.12,1,1,0,0,1-.57-.4,4.22,4.22,0,0,0-4.66-2.05c-.78.24-1.83-2.14-2.27-3.15l-.06-.14a2.06,2.06,0,0,1,.36.08.78.78,0,0,0,.2,0,8.15,8.15,0,0,0,3.54,1.77L362,50.68c2.55.7,5.73,1.58,8.7,2.37,8.51,2.27,10.21,2.5,10.78,2.41a7.31,7.31,0,0,0,1-.23,4.73,4.73,0,0,1,0,2.59A7,7,0,0,0,378.74,56.38Z"/><circle class="h" cx="362.38" cy="38.77" r="1.24" transform="matrix(0.26, -0.97, 0.97, 0.26, 231.32, 378.84)"/><circle class="h" cx="370.45" cy="38.15" r="1.24" transform="translate(237.91 386.18) rotate(-75.03)"/><circle class="h" cx="378.79" cy="42.95" r="1.24" transform="matrix(0.26, -0.97, 0.97, 0.26, 239.46, 397.79)"/><polygon class="a" points="125.97 226.62 129.79 229.42 129.51 231.25 121.9 231.45 120.9 233.96 121.17 238.69 121.36 240.92 120.99 241.85 118.01 238.51 118.19 235.36 118.37 232.2 119.11 230.34 119.85 228.48 121.15 227.92 125.97 226.62"/><path class="b" d="M141.15,225s-11.19-3-13.41-3.05-3.91,3.61-3.91,3.61l25.84,10.7s1.28-4.24.37-6.32S142.48,224.83,141.15,225Z"/><path class="b" d="M120.65,237.49a3.9,3.9,0,0,0,.61,4.87c2.3,2.22,15.52,7.48,17.1,7.55a17.86,17.86,0,0,0,3.36-.24l2.64-3s-1.38-1.49-2.93-1a3.41,3.41,0,0,1-2.82,0c-.76-.33-1.94-3.08-2.47-3.42s-2.7.53-4,.19-.88-2.4-2.41-2.5-2.21,1-4,.33S122.24,235.36,120.65,237.49Z"/><path class="f" d="M129.52,229.39a14.26,14.26,0,0,0-3.55.16c-.81.33,8.15,4.05,8.15,4.05A5,5,0,0,0,129.52,229.39Z"/><path class="f" d="M135.92,232s7.92,2.5,8.38,4-.14,1.63-.14,1.63l-9.78-3.4S134.36,231.46,135.92,232Z"/><path class="c" d="M130,232.08s-6.63-2.62-7.67-2.28-2.45,1.53-1.65,2.55,22.34,10.25,22.34,10.25a7.39,7.39,0,0,0,3.76.73c1.77-.27,2.49-1.28,1.87-2.4S138.87,234.29,130,232.08Z"/><path class="g" d="M119.59,232.1c.34.26-.27,4.19,1,4.53s2-.68,3,1,2.79,2.66,4.28,2.06a3.44,3.44,0,0,1,4.08,1.75c.54,1.36,3.44,1.14,4.26.81s1.22,1.08,1.84,2.25,1.27,1.22,2.3.65,4.84,1.44,5.25,2.38,1.82-.25,1.93-1.55a2.41,2.41,0,0,0-.53-1.91l-9.78-3.4C134.43,239.69,119.59,232.1,119.59,232.1Z"/><path class="d" d="M148.71,243a2.77,2.77,0,0,0,.76-2c0-.66-.47-1.37-2.19-2.39a5.68,5.68,0,0,0-.42-2.54l2.53,1a.77.77,0,0,0,1-.51c.05-.2,1.33-4.83-.05-7.63-.21-.43-.78-1.59-7.61-4.51-5.92-2.54-14.12-5.31-15.95-5.4-2.62-.12-4.72,3-5.85,4.62-.19.28-.36.53-.46.65a.77.77,0,0,0,.3,1.2h0l3,1.23a4.34,4.34,0,0,0-2,.63,2.58,2.58,0,0,0-2.23,0,3.39,3.39,0,0,0-1.35,3.07c0,.08,0,.17,0,.26a1.33,1.33,0,0,0-.8.29,1.66,1.66,0,0,0-.35,1.87,17.67,17.67,0,0,0,.86,2.56c-.84,1.36-1.41,4.11,1.5,6.65,1.69,1.47,6.53,4,11.16,6,4.26,1.83,8.33,3.15,9.57,2.66.42-.17.77-.27,1.07-.37,1.31-.4,2-.71,3.26-2.94a1,1,0,0,1,.26.35,1.11,1.11,0,0,0,.94.87c.51.05,1-.26,1.36-.94a6.11,6.11,0,0,0,.68-4.07A3.26,3.26,0,0,0,148.71,243Zm-15-10.29c-2.24-1-4.27-2-6-2.76-1.38-.66-2.59-1.24-3.63-1.69a5.77,5.77,0,0,1,1.57.18C130.52,229.56,133.57,231.2,133.75,232.66Zm1.51.66h0a2.67,2.67,0,0,0,0-.88c4.64,1.1,9.48,2.72,9.9,3.58a6.06,6.06,0,0,1,.53,1.68c-.74-.37-1.62-.77-2.66-1.22-1.64-.7-3.35-1.37-4.86-2-1.12-.44-2.09-.82-2.78-1.12Zm-8.52-12.81c1.49.07,9.38,2.69,15.41,5.27s6.78,3.66,6.83,3.77c.81,1.64.42,4.32.15,5.68l-26.83-10.87C123.2,223,125,220.44,126.74,220.52Zm-6.28,8.11c.13,0,.68,0,2.68.82,1.09.47,2.44,1.11,4,1.85,2.11,1,4.74,2.26,7.68,3.52.71.3,1.69.69,2.82,1.13,1.5.59,3.19,1.25,4.81,1.95,4.78,2,5.4,2.91,5.48,3.09a1.19,1.19,0,0,1-.33.89,3.38,3.38,0,0,1-2.29.71c-.36,0-2.1-.55-9.71-3.81-2.82-1.21-5.83-2.53-8.25-3.59l-4.35-1.9c-1.95-.84-3.08-1.91-3.2-3A1.86,1.86,0,0,1,120.46,228.63Zm20.37,20.23c-.32.1-.72.22-1.19.41-1.69.54-15.52-5.26-19.14-8.41-1.82-1.59-1.79-3.08-1.5-4a1.94,1.94,0,0,0,1.66.51,2.73,2.73,0,0,1,2.6,1.61,2.36,2.36,0,0,0,1.32,1.42,4.17,4.17,0,0,0,3.11.19c.85-.34,1.26-.38,1.89.58a4.28,4.28,0,0,0,4.47,1.93c.31,0,.6-.11.85-.17,1.14-.26,1.15-.22,1.31.4.24.92.8,2.48,1.88,2.94l.16.06a1.69,1.69,0,0,0,1.63-.39,4,4,0,0,1,2.48.26,8.5,8.5,0,0,1,.88.34C142.21,248.43,141.85,248.54,140.83,248.86Zm1.63-4.21c-1-.27-2.69-.62-3.58.14a.38.38,0,0,1-.16.09c-.11,0-.64-.49-1-1.92-.55-2.1-2.12-1.75-3.15-1.51-.24.06-.49.11-.75.15a2.71,2.71,0,0,1-2.93-1.24,2.74,2.74,0,0,0-3.76-1.17,2.7,2.7,0,0,1-1.86-.15,1,1,0,0,1-.51-.47,4.22,4.22,0,0,0-4.32-2.7c-.81.13-1.5-2.38-1.8-3.45l0-.15a2.06,2.06,0,0,1,.34.13.78.78,0,0,0,.19.07,8.15,8.15,0,0,0,3.25,2.26l4.34,1.89c2.43,1.06,5.44,2.39,8.27,3.6,8.09,3.47,9.75,3.94,10.33,3.93a7.31,7.31,0,0,0,1-.08,4.73,4.73,0,0,1-.39,2.56A7,7,0,0,0,142.46,244.64Z"/><circle class="h" cx="128.79" cy="224.88" r="1.24" transform="translate(-128.64 254.64) rotate(-66.8)"/><circle class="h" cx="136.87" cy="225.42" r="1.24" transform="translate(-124.24 262.4) rotate(-66.8)"/><circle class="h" cx="144.43" cy="231.36" r="1.24" transform="matrix(0.39, -0.92, 0.92, 0.39, -125.12, 272.95)"/><polygon class="a" points="236.76 189.31 239.27 185.29 241.12 185.43 241.89 193.01 244.46 193.81 249.16 193.19 251.37 192.83 252.33 193.13 249.22 196.35 246.06 196.41 242.9 196.47 240.99 195.87 239.08 195.27 238.43 194.02 236.76 189.31"/><path class="b" d="M234.06,174.29s-2.15,11.38-2,13.6,3.89,3.62,3.89,3.62l8.73-26.56s-4.33-1-6.33.1S233.74,173,234.06,174.29Z"/><path class="b" d="M248,193.8a3.9,3.9,0,0,0,4.81-1c2-2.47,6.29-16,6.25-17.62a17.86,17.86,0,0,0-.5-3.33l-3.21-2.41s-1.38,1.49-.81,3a3.41,3.41,0,0,1,.24,2.81c-.27.78-2.92,2.16-3.22,2.72s.73,2.65.49,4-2.33,1.06-2.31,2.59,1.13,2.13.62,3.92S245.76,192.37,248,193.8Z"/><path class="f" d="M239.26,185.56a14.26,14.26,0,0,0,.43,3.53c.39.79,3.43-8.43,3.43-8.43A5,5,0,0,0,239.26,185.56Z"/><path class="f" d="M241.4,179s1.89-8.08,3.4-8.66,1.63,0,1.63,0l-2.66,10S241,180.58,241.4,179Z"/><path class="c" d="M241.91,184.83s-2.11,6.81-1.7,7.82,1.71,2.33,2.67,1.46,8.55-23.05,8.55-23.05a7.39,7.39,0,0,0,.45-3.81c-.4-1.74-1.46-2.39-2.53-1.69S243.45,175.87,241.91,184.83Z"/><path class="g" d="M242.7,195.26c.23-.36,4.2,0,4.44-1.29s-.82-1.94.75-3,2.44-3,1.73-4.43a3.44,3.44,0,0,1,1.44-4.2c1.31-.64.88-3.52.49-4.31s1-1.3,2.11-2,1.12-1.36.48-2.35,1.07-4.93,2-5.41-.38-1.79-1.69-1.8a2.41,2.41,0,0,0-1.87.67s-1.92,7.2-2.66,10S242.7,195.26,242.7,195.26Z"/><path class="d" d="M251.35,165.41a2.77,2.77,0,0,0-2.08-.61c-.66.06-1.33.57-2.22,2.36a5.68,5.68,0,0,0-2.5.61l.83-2.6a.77.77,0,0,0-.59-1c-.2,0-4.92-1-7.6.62-.42.25-1.52.9-3.93,7.93-2.09,6.1-4.24,14.48-4.19,16.31.08,2.63,3.31,4.49,5,5.49.3.17.55.32.68.41a.77.77,0,0,0,1.18-.38h0l1-3.12a4.34,4.34,0,0,0,.78,2,2.58,2.58,0,0,0,.21,2.22,3.39,3.39,0,0,0,3.16,1.11l.25-.06a1.33,1.33,0,0,0,.34.78,1.66,1.66,0,0,0,1.89.21,17.67,17.67,0,0,0,2.49-1c1.42.74,4.21,1.1,6.51-2,1.34-1.79,3.54-6.82,5.17-11.58,1.5-4.38,2.52-8.54,1.93-9.74-.2-.4-.33-.74-.45-1-.5-1.27-.86-2-3.17-3a1,1,0,0,1,.33-.28,1.11,1.11,0,0,0,.8-1c0-.51-.33-.95-1-1.29a6.11,6.11,0,0,0-4.11-.37A3.26,3.26,0,0,0,251.35,165.41Zm-9.14,15.69c-.82,2.31-1.63,4.4-2.31,6.15-.55,1.43-1,2.68-1.42,3.75a5.77,5.77,0,0,1,.06-1.58C239.35,184.55,240.76,181.39,242.21,181.1Zm.54-1.55h0a2.67,2.67,0,0,0-.88,0c.75-4.71,2-9.66,2.82-10.14a6.06,6.06,0,0,1,1.63-.65c-.31.77-.65,1.67-1,2.75-.58,1.69-1.12,3.44-1.6,5-.35,1.15-.66,2.14-.9,2.85ZM230.62,189c0-1.49,2-9.56,4.1-15.76s3.15-7,3.25-7.09c1.58-.93,4.27-.75,5.65-.57l-8.82,27.57C233.4,192.33,230.67,190.72,230.62,189Zm8.56,5.65c0-.13-.09-.68.62-2.73.39-1.13.92-2.51,1.54-4.12.84-2.18,1.9-4.9,2.93-7.92.25-.73.56-1.74.92-2.9.47-1.54,1-3.28,1.58-4.94,1.68-4.92,2.49-5.61,2.67-5.7a1.19,1.19,0,0,1,.91.26,3.38,3.38,0,0,1,.88,2.23c0,.36-.39,2.14-3.07,10-1,2.9-2.08,6-3,8.5-.64,1.83-1.2,3.41-1.56,4.48-.69,2-1.68,3.22-2.78,3.42A1.86,1.86,0,0,1,239.18,194.65Zm18.64-21.83c.12.31.28.7.5,1.15.67,1.65-4.08,15.87-6.95,19.72-1.44,1.94-2.93,2-3.86,1.8a1.94,1.94,0,0,0,.38-1.7,2.73,2.73,0,0,1,1.41-2.71,2.36,2.36,0,0,0,1.32-1.42,4.17,4.17,0,0,0,0-3.11c-.4-.82-.48-1.23.44-1.93a4.28,4.28,0,0,0,1.59-4.6c-.07-.3-.16-.59-.23-.84-.34-1.12-.31-1.13.3-1.34.9-.31,2.41-1,2.79-2.1l0-.16A1.69,1.69,0,0,0,255,174a4,4,0,0,1,.08-2.49,8.5,8.5,0,0,1,.28-.91C257.29,171.48,257.43,171.82,257.82,172.82Zm-4.32-1.31c-.2,1-.41,2.73.41,3.56a.38.38,0,0,1,.11.15c0,.11-.44.67-1.84,1.15-2.06.71-1.58,2.24-1.27,3.26.07.24.15.48.21.73a2.71,2.71,0,0,1-1,3,2.74,2.74,0,0,0-.89,3.84,2.7,2.7,0,0,1,0,1.86,1,1,0,0,1-.43.54,4.22,4.22,0,0,0-2.37,4.51c.19.8-2.26,1.68-3.3,2.05l-.15,0a2.06,2.06,0,0,1,.11-.35.78.78,0,0,0,.05-.2,8.15,8.15,0,0,0,2-3.41c.37-1.07.92-2.64,1.56-4.47.88-2.5,2-5.61,3-8.51,2.85-8.33,3.2-10,3.15-10.59a7.31,7.31,0,0,0-.16-1,4.73,4.73,0,0,1,2.58.2A7,7,0,0,0,253.5,171.51Z"/><circle class="h" cx="234.81" cy="186.63" r="1.24" transform="translate(-17.82 348.33) rotate(-71.1)"/><circle class="h" cx="234.75" cy="178.53" r="1.24" transform="translate(-10.2 342.79) rotate(-71.1)"/><circle class="h" cx="240.1" cy="170.54" r="1.24" transform="translate(0.98 342.45) rotate(-71.1)"/><polygon class="a" points="215.6 86.48 215.18 91.2 213.47 91.91 209.35 85.51 206.69 85.95 202.78 88.64 200.97 89.96 199.98 90.13 201.29 85.85 204.09 84.36 206.88 82.88 208.85 82.55 210.82 82.22 211.97 83.04 215.6 86.48"/><path class="b" d="M224.81,98.65s-3.24-11.12-4.35-13-5.11-1.47-5.11-1.47l4.25,27.64s4.29-1.1,5.59-3S225.68,99.67,224.81,98.65Z"/><path class="b" d="M203.54,87.58a3.9,3.9,0,0,0-3.85,3c-.71,3.12,1.66,17.15,2.41,18.54a17.86,17.86,0,0,0,2,2.75l4,.69s.56-2-.64-3-1.37-1.58-1.49-2.4,1.63-3.25,1.64-3.88-1.85-2-2.24-3.33,1.59-2,.88-3.36-2-1.39-2.33-3.22S206.18,87.83,203.54,87.58Z"/><path class="f" d="M215.07,91a14.26,14.26,0,0,0-2-3c-.7-.53.76,9.07.76,9.07A5,5,0,0,0,215.07,91Z"/><path class="f" d="M216.14,97.79s2,8.06.89,9.26-1.46.73-1.46.73l-2.16-10.12S215.8,96.17,216.14,97.79Z"/><path class="c" d="M213,92.8s-1.2-7-2-7.74-2.58-1.3-3-.09,2.82,24.42,2.82,24.42a7.39,7.39,0,0,0,1.33,3.6c1.15,1.37,2.38,1.47,3,.36S215.72,101.5,213,92.8Z"/><path class="g" d="M207.6,83.87c0,.42-3.72,1.94-3.38,3.17s1.62,1.36.71,3.05-.82,3.77.46,4.73a3.44,3.44,0,0,1,.62,4.4c-.88,1.17.81,3.54,1.51,4.06s-.29,1.61-1,2.74-.38,1.72.64,2.31,1.28,4.88.69,5.72,1.16,1.42,2.32.84a2.41,2.41,0,0,0,1.36-1.44s-1.55-7.29-2.16-10.12S207.6,83.87,207.6,83.87Z"/><path class="d" d="M213.42,114.4a2.77,2.77,0,0,0,2.13-.4c.56-.35.92-1.11.91-3.11a5.68,5.68,0,0,0,2-1.68l.44,2.69a.77.77,0,0,0,1,.62c.2-.05,4.82-1.37,6.5-4,.26-.41,1-1.49-.09-8.85-.9-6.38-2.78-14.83-3.66-16.44-1.26-2.31-5-2.5-7-2.61-.34,0-.64,0-.8-.06a.77.77,0,0,0-.87.88v0l.52,3.23a4.34,4.34,0,0,0-1.58-1.4c-.26-1-.61-1.62-1.19-1.88a3.39,3.39,0,0,0-3.32.44l-.2.16a1.33,1.33,0,0,0-.66-.54,1.66,1.66,0,0,0-1.78.67A17.67,17.67,0,0,0,204,84.21c-1.6,0-4.25.92-4.91,4.73-.38,2.21-.06,7.68.64,12.66.65,4.59,1.63,8.76,2.69,9.56.36.27.63.51.87.73,1,.91,1.65,1.35,4.2,1.26a1,1,0,0,1-.16.4,1.11,1.11,0,0,0-.26,1.25c.22.46.73.69,1.51.68a6.11,6.11,0,0,0,3.83-1.53A3.26,3.26,0,0,0,213.42,114.4Zm1-18.12c-.31-2.43-.54-4.66-.73-6.53-.15-1.52-.29-2.86-.44-4A5.77,5.77,0,0,1,214,87.2C215.44,91.9,215.61,95.35,214.46,96.27Zm.22,1.63h0a2.67,2.67,0,0,0,.77-.43c1.46,4.54,2.6,9.52,2.08,10.32a6.06,6.06,0,0,1-1.16,1.32c-.07-.82-.18-1.79-.34-2.91-.25-1.77-.56-3.57-.84-5.17-.21-1.19-.38-2.21-.49-3ZM221.21,84c.71,1.31,2.57,9.41,3.48,15.91s.38,7.69.32,7.8c-1,1.54-3.47,2.6-4.78,3.07L215.6,82.18C217.22,82.26,220.38,82.46,221.21,84ZM211,82.82c.1.1.39.56.69,2.71.17,1.18.32,2.66.49,4.37.24,2.33.53,5.22,1,8.39.11.77.29,1.8.49,3,.27,1.58.58,3.38.83,5.12.73,5.15.32,6.13.2,6.29a1.19,1.19,0,0,1-.93.18,3.38,3.38,0,0,1-1.79-1.59c-.17-.32-.62-2.08-1.78-10.28-.43-3-.86-6.3-1.21-8.92-.26-1.93-.48-3.58-.63-4.7-.3-2.1,0-3.63.93-4.31A1.86,1.86,0,0,1,211,82.82Zm-6.72,27.91c-.25-.22-.56-.5-1-.8-1.34-1.17-3.55-16-2.74-20.72.41-2.38,1.7-3.13,2.62-3.35a1.94,1.94,0,0,0,.43,1.69,2.73,2.73,0,0,1,0,3.06,2.36,2.36,0,0,0-.53,1.87,4.17,4.17,0,0,0,1.45,2.76c.73.55,1,.88.49,1.92a4.28,4.28,0,0,0,.67,4.82c.2.24.41.45.59.64.81.84.79.87.34,1.33-.66.68-1.7,2-1.54,3.13q0,.08,0,.16a1.69,1.69,0,0,0,1.18,1.19,4,4,0,0,1,1.06,2.25,8.5,8.5,0,0,1,.16.93C205.37,111.68,205.09,111.44,204.29,110.73Zm4.45-.79c-.26-1-.87-2.62-2-3a.38.38,0,0,1-.16-.09c-.06-.1.08-.8,1.11-1.86,1.51-1.56.4-2.72-.34-3.48-.17-.18-.35-.36-.52-.56a2.71,2.71,0,0,1-.46-3.15,2.74,2.74,0,0,0-1-3.82,2.7,2.7,0,0,1-.84-1.67,1,1,0,0,1,.14-.68,4.22,4.22,0,0,0,.07-5.09c-.53-.63,1.25-2.52,2-3.33l.11-.11a2.06,2.06,0,0,1,.06.36.78.78,0,0,0,0,.2,8.15,8.15,0,0,0-.24,3.95c.16,1.12.38,2.77.63,4.69.35,2.63.78,5.89,1.21,8.93,1.23,8.72,1.69,10.38,2,10.87a7.31,7.31,0,0,0,.59.82,4.73,4.73,0,0,1-2.39,1A7,7,0,0,0,208.74,109.94Z"/><circle class="h" cx="218.54" cy="87.99" r="1.24" transform="translate(-10.16 31.43) rotate(-8.04)"/><circle class="h" cx="222.27" cy="95.18" r="1.24" transform="translate(-11.13 32.02) rotate(-8.04)"/><circle class="h" cx="221.12" cy="104.73" r="1.24" transform="translate(-12.47 31.95) rotate(-8.04)"/><polygon class="a" points="148.99 154.73 146.55 155.88 133.27 147.3 135.17 144.82 132.8 145.12 128.9 141.84 130.61 139.19 132.64 140.12 134.36 137.46 134.67 134.65 133.42 133.09 136.38 132 139.04 133.71 141.38 131.84 139.66 128.09 142 126.21 144.03 127.15 146.22 126.68 150.91 135.73 148.99 154.73"/><path class="e" d="M129.22,140.62"/><polyline class="e" points="129.22 140.62 134.88 144.45 136.32 143.04 130.91 138.88"/><polyline class="e" points="133.11 139.04 136.65 142 140.29 142.04 134.45 136.94"/><polyline class="e" points="134.33 132.38 140.18 141.1 143.75 141.84 144.52 141.03 136.46 130.54"/><path class="e" d="M139.86,132.84l5.72,6.63a34.67,34.67,0,0,1,.57-3.94l-3.77-4.37"/><path class="e" d="M142.1,125.76l6.54,7.89-2.16,1.48c-.89,1-3.3-2.5-3.3-2.5l-2.71-5.3"/><polyline class="e" points="147.54 126.02 150.94 132.18 149.38 133.44 145.28 127.06"/><path class="f" d="M134.74,145.73c0,.3,13.32,9.67,13.32,9.67s5.3-4,8.16-6.05,3-3.5,3-3.5l-6.39-14.67s-5.55,2.55-6.12,3.45-.12,4.82-2.2,6.41-4.77.17-6.59.46S134.79,144.66,134.74,145.73Z"/><path class="d" d="M154.11,152.31c2.73-2.2,6-5.11,5.87-6.52-.14-2.07-5.53-13.82-6.05-14.71a1.1,1.1,0,0,0-.77-.51,4,4,0,0,0-2.05.49l-2.9-5.4a.75.75,0,0,0-.95-.34l-3.36,1.35-.14.07-1-1.44a.75.75,0,0,0-1.06-.16l-3.15,2.34a.76.76,0,0,0-.17,1l2.05,3-1.69,1.07-1.62-2a.75.75,0,0,0-1-.17l-3.22,2a.75.75,0,0,0-.24,1l1.69,2.75a.75.75,0,0,0-.45.27l-2.06,2.61-.84-.69a.75.75,0,0,0-1,.1l-2.09,2.45a.75.75,0,0,0,.11,1.08l5.11,4a6.82,6.82,0,0,0-.7,1.51.75.75,0,0,0,.3.81c1.2.83,11.82,8.1,13.43,8.61C147.48,157.4,151.71,154.24,154.11,152.31ZM147.2,127l2.57,4.77c-.57.32-1.13.66-1.63,1L144.67,128ZM140,128.27l2-1.45,4.94,6.76-.63.46a2.06,2.06,0,0,0-.52.63L143,130.72a.75.75,0,0,0-1-.21l-.31.2Zm2.18,3.91,3,4.4,0,.31a9.15,9.15,0,0,1-.72,2.86l-4.8-6ZM137,137.72l-2.71-4.42,2-1.26,7,8.76a.75.75,0,0,0,.16.14,3.8,3.8,0,0,1-2.9.32.75.75,0,0,0-.18-.23l-3.33-2.83A.75.75,0,0,0,137,137.72Zm-2.45.3,3.23,2.74a2.16,2.16,0,0,0-1,.51,9.39,9.39,0,0,0-1,1L133,140Zm-5.09,3.3,1.1-1.3,4.21,3.42c-.33.42-.65.86-.94,1.3Zm8.26,1.13a1.53,1.53,0,0,1,.3-.2,7,7,0,0,1,1.06.22c1.51.37,3.8.94,5.47-.41a3.74,3.74,0,0,0,.55-.55,8.36,8.36,0,0,0,1.56-4.42c.11-.81.22-1.64.52-1.88,1.35-1.08,4.56-3,5.55-3.14.91,1.79,5.57,12.16,5.73,13.8-.13.53-1.84,2.48-5.31,5.27s-6.09,4.3-6.68,4.37c-1.18-.45-8-5-12.5-8.06A19.72,19.72,0,0,1,137.73,142.45Z"/><polygon class="a" points="289.99 76.73 287.55 77.88 274.27 69.3 276.17 66.82 273.8 67.12 269.89 63.84 271.61 61.19 273.64 62.12 275.36 59.46 275.67 56.65 274.42 55.09 277.38 54 280.04 55.71 282.38 53.84 280.66 50.09 283 48.21 285.03 49.15 287.22 48.68 291.91 57.73 289.99 76.73"/><path class="e" d="M270.22,62.62"/><polyline class="e" points="270.22 62.62 275.88 66.45 277.32 65.04 271.91 60.88"/><polyline class="e" points="274.11 61.04 277.65 64 281.29 64.04 275.45 58.94"/><polyline class="e" points="275.33 54.38 281.18 63.1 284.75 63.84 285.52 63.03 277.46 52.54"/><path class="e" d="M280.86,54.84l5.72,6.63a34.67,34.67,0,0,1,.57-3.94l-3.77-4.37"/><path class="e" d="M283.1,47.76l6.54,7.89-2.16,1.48c-.89,1-3.3-2.5-3.3-2.5l-2.71-5.3"/><polyline class="e" points="288.54 48.02 291.94 54.18 290.38 55.44 286.28 49.06"/><path class="f" d="M275.74,67.73c0,.3,13.32,9.67,13.32,9.67s5.3-4,8.16-6.05,3-3.5,3-3.5l-6.39-14.67s-5.55,2.55-6.12,3.45-.12,4.82-2.2,6.41-4.77.17-6.59.46S275.79,66.66,275.74,67.73Z"/><path class="d" d="M295.11,74.31c2.73-2.2,6-5.11,5.87-6.52-.14-2.07-5.53-13.82-6.05-14.71a1.1,1.1,0,0,0-.77-.51,4,4,0,0,0-2.05.49l-2.9-5.4a.75.75,0,0,0-.95-.34l-3.36,1.35-.14.07-1-1.44a.75.75,0,0,0-1.06-.16l-3.15,2.34a.76.76,0,0,0-.17,1l2.05,3-1.69,1.07-1.62-2a.75.75,0,0,0-1-.17l-3.22,2a.75.75,0,0,0-.24,1l1.69,2.75a.75.75,0,0,0-.45.27l-2.06,2.61-.84-.69a.75.75,0,0,0-1,.1l-2.09,2.45a.75.75,0,0,0,.11,1.08L274,68a6.82,6.82,0,0,0-.7,1.51.75.75,0,0,0,.3.81c1.2.83,11.82,8.1,13.43,8.61C288.48,79.4,292.71,76.24,295.11,74.31ZM288.2,49l2.57,4.77c-.57.32-1.13.66-1.63,1L285.67,50ZM281,50.27l2-1.45,4.94,6.76-.63.46a2.06,2.06,0,0,0-.52.63L284,52.72a.75.75,0,0,0-1-.21l-.31.2Zm2.18,3.91,3,4.4,0,.31a9.15,9.15,0,0,1-.72,2.86l-4.8-6ZM278,59.72,275.3,55.3l2-1.26,7,8.76a.75.75,0,0,0,.16.14,3.8,3.8,0,0,1-2.9.32.75.75,0,0,0-.18-.23l-3.33-2.83A.75.75,0,0,0,278,59.72Zm-2.45.3,3.23,2.74a2.16,2.16,0,0,0-1,.51,9.39,9.39,0,0,0-1,1L274,62Zm-5.09,3.3,1.1-1.3,4.21,3.42c-.33.42-.65.86-.94,1.3Zm8.26,1.13a1.53,1.53,0,0,1,.3-.2,7,7,0,0,1,1.06.22c1.51.37,3.8.94,5.47-.41a3.74,3.74,0,0,0,.55-.55,8.36,8.36,0,0,0,1.56-4.42c.11-.81.22-1.64.52-1.88,1.35-1.08,4.56-3,5.55-3.14.91,1.79,5.57,12.16,5.73,13.8-.13.53-1.84,2.48-5.31,5.27s-6.09,4.3-6.68,4.37c-1.18-.45-8-5-12.5-8.06A19.72,19.72,0,0,1,278.73,64.45Z"/><polygon class="a" points="227.52 270.02 225.87 267.89 231.39 253.07 234.22 254.39 233.42 252.14 235.78 247.62 238.74 248.72 238.26 250.91 241.23 252.01 244.04 251.71 245.3 250.15 247 252.81 245.9 255.78 248.24 257.66 251.53 255.17 253.86 257.05 253.38 259.24 254.31 261.27 246.48 267.8 227.52 270.02"/><path class="e" d="M237,247.67"/><polyline class="e" points="237.04 247.68 234.51 254.03 236.21 255.13 239.11 248.95"/><polyline class="e" points="239.42 251.13 237.29 255.23 238.04 258.79 241.76 251.99"/><polyline class="e" points="246.19 250.89 238.94 258.48 238.98 262.12 239.93 262.7 248.44 252.58"/><path class="e" d="M246.93,256.39l-5.24,7a34.67,34.67,0,0,1,4-.29l3.46-4.63"/><path class="e" d="M254.33,257.05l-6.3,8.08-1.91-1.79c-1.14-.66,1.73-3.77,1.73-3.77l4.59-3.79"/><polyline class="e" points="255.24 262.42 249.96 267.07 248.39 265.81 253.74 260.44"/><path class="f" d="M233.24,254.17c-.3.05-6.57,15.09-6.57,15.09s5,4.31,7.67,6.67,4.06,2.17,4.06,2.17l13-9.4s-3.69-4.87-4.69-5.24-4.73.92-6.73-.76-1.19-4.62-1.87-6.34S234.3,254,233.24,254.17Z"/><path class="d" d="M231,274.49c2.73,2.19,6.28,4.73,7.63,4.33,2-.58,12.31-8.38,13.06-9.08a1.1,1.1,0,0,0,.34-.86,4,4,0,0,0-.92-1.9l4.65-4a.75.75,0,0,0,.13-1l-2-3-.1-.12,1.18-1.33a.75.75,0,0,0-.07-1.07l-3-2.57a.76.76,0,0,0-1,.05l-2.49,2.65-1.41-1.41,1.62-2a.75.75,0,0,0,0-1l-2.66-2.71a.75.75,0,0,0-1.06,0l-2.32,2.24a.75.75,0,0,0-.36-.38l-3-1.45.49-1a.75.75,0,0,0-.32-1l-2.85-1.51a.75.75,0,0,0-1,.34l-2.81,5.85a6.82,6.82,0,0,0-1.63-.35.75.75,0,0,0-.72.47c-.55,1.35-5.37,13.29-5.52,15C224.58,269.12,228.58,272.57,231,274.49Zm23.25-12.2-4.11,3.53c-.43-.49-.89-1-1.32-1.38l3.89-4.4Zm-2.82-6.77,1.84,1.6-5.54,6.28-.58-.52a2.06,2.06,0,0,0-.73-.37l3.26-3.52a.75.75,0,0,0,0-1l-.26-.26Zm-3.34,3-3.64,3.93-.31,0a9.15,9.15,0,0,1-2.95-.09l4.8-6Zm-6.53-3.85,3.73-3.6,1.67,1.7-7,8.77a.75.75,0,0,0-.11.18,3.8,3.8,0,0,1-.94-2.76.75.75,0,0,0,.18-.22l2-3.86A.75.75,0,0,0,241.55,254.65Zm-.82-2.32-2,3.74a2.16,2.16,0,0,0-.72-.87,9.39,9.39,0,0,0-1.21-.79l1.61-3.2Zm-4.32-4.26,1.5.8-2.43,4.85c-.48-.23-1-.45-1.47-.64Zm.68,8.31a1.53,1.53,0,0,1,.26.25,7,7,0,0,1,0,1.08c0,1.56-.1,3.91,1.58,5.25a3.74,3.74,0,0,0,.65.42,8.36,8.36,0,0,0,4.65.58,3.76,3.76,0,0,1,1.95.1c1.35,1.08,3.9,3.81,4.26,4.75-1.55,1.28-10.67,8.05-12.24,8.57-.54,0-2.82-1.26-6.29-4.05s-5.51-5-5.7-5.59c.18-1.25,3.17-8.94,5.18-13.94A19.72,19.72,0,0,1,237.09,256.38Z"/><rect class="i" width="424" height="310"/></svg>