<svg xmlns="http://www.w3.org/2000/svg" viewBox="0 0 33.91 26.54"><defs><style>.a{fill:#ffd673;}.b{fill:#ec1c24;}.c{fill:#a00c10;}.d{fill:#d6de23;}.e{fill:#441600;}.f{fill:#f89e36;}</style></defs><title>burger</title><path class="a" d="M20,1.26S8.46,2.61,6.37,3.38s-2.3,4.79-2.3,4.79l28,.39s-.38-4.42-2-6S21.12.57,20,1.26Z"/><path class="a" d="M5.51,20.4a3.9,3.9,0,0,0,2.37,4.3c3,1.21,17.19,1.21,18.68.7a17.86,17.86,0,0,0,3-1.47l1.34-3.79s-1.84-.87-3.1.12a3.41,3.41,0,0,1-2.61,1.07c-.83,0-2.94-2.14-3.56-2.26S19.35,20.56,18,20.73s-1.71-1.9-3.16-1.43-1.7,1.71-3.56,1.77S6.2,17.84,5.51,20.4Z"/><path class="b" d="M10.75,9.59a14.26,14.26,0,0,0-3.24,1.46c-.64.6,9.07.76,9.07.76A5,5,0,0,0,10.75,9.59Z"/><path class="b" d="M17.67,9.67S26,9.06,27,10.33s.48,1.56.48,1.56l-10.34.45S16,9.73,17.67,9.67Z"/><path class="c" d="M12.24,11.9s-7.13,0-8,.72-1.71,2.33-.6,3,24.55,1.27,24.55,1.27A7.39,7.39,0,0,0,32,16.16c1.54-.9,1.84-2.1.85-2.92S21.26,10.7,12.24,11.9Z"/><path class="d" d="M2.53,15.78c.41.11,1.3,4,2.56,3.85s1.61-1.37,3.13-.19,3.58,1.44,4.74.33a3.44,3.44,0,0,1,4.44.12c1,1.06,3.62-.21,4.26-.82s1.53.56,2.55,1.41,1.64.66,2.38-.25,5-.46,5.75.27,1.6-.9,1.22-2.15a2.41,2.41,0,0,0-1.2-1.58L22,17.22C19.12,17.35,2.53,15.78,2.53,15.78Z"/><path class="e" d="M33.6,15.11a2.77,2.77,0,0,0,0-2.17c-.26-.61-.94-1.1-2.92-1.41a5.68,5.68,0,0,0-1.33-2.2l2.73,0a.77.77,0,0,0,.77-.86c0-.2-.55-5-2.87-7.07C29.58,1.09,28.63.23,21.2,0,14.76-.13,6.12.32,4.39.92,1.9,1.77,1.09,5.41.66,7.37.58,7.7.52,8,.47,8.14a.77.77,0,0,0,.72,1h0l3.27,0A4.34,4.34,0,0,0,2.84,10.5a2.58,2.58,0,0,0-2.05.86,3.39,3.39,0,0,0-.12,3.35l.13.23a1.33,1.33,0,0,0-.64.56,1.66,1.66,0,0,0,.36,1.87,17.67,17.67,0,0,0,1.74,2.06C2,21,2.47,23.77,6.11,25c2.11.74,7.56,1.34,12.59,1.47,4.63.12,8.91-.15,9.87-1.07.32-.31.61-.54.86-.74,1.06-.86,1.61-1.4,1.94-3.93a1,1,0,0,1,.37.23,1.11,1.11,0,0,0,1.19.46c.49-.14.8-.6.92-1.38a6.11,6.11,0,0,0-.87-4A3.26,3.26,0,0,0,33.6,15.11Zm-17.7-4c-2.45-.1-4.69-.24-6.56-.37-1.53-.1-2.87-.19-4-.23a5.77,5.77,0,0,1,1.53-.41C11.75,9.38,15.19,9.78,15.9,11.07Zm1.65.06h0a2.67,2.67,0,0,0-.3-.83c4.72-.69,9.82-1,10.52-.33a6.06,6.06,0,0,1,1.11,1.36c-.83-.07-1.79-.12-2.93-.15-1.78,0-3.62,0-5.24,0-1.2,0-2.24,0-3,0ZM4.89,2.38c1.41-.49,9.71-1,16.27-.8s7.65.9,7.74,1c1.36,1.23,2,3.86,2.23,5.22L2.19,7.61C2.54,6,3.26,2.94,4.89,2.38ZM2.06,12.24c.11-.08.62-.29,2.79-.23,1.19,0,2.67.13,4.39.24,2.33.15,5.24.35,8.43.43.77,0,1.82,0,3,0,1.61,0,3.43,0,5.19,0,5.2.14,6.09.7,6.24.85a1.19,1.19,0,0,1,0,.95A3.38,3.38,0,0,1,30.3,16c-.34.11-2.16.27-10.43.05-3.06-.08-6.35-.19-9-.29l-4.74-.15C4,15.58,2.56,15,2,14A1.86,1.86,0,0,1,2.06,12.24ZM28.47,23.5c-.26.21-.59.47-1,.82-1.37,1.13-16.37.85-20.89-.74-2.28-.8-2.8-2.2-2.87-3.14a1.94,1.94,0,0,0,1.73-.14,2.73,2.73,0,0,1,3,.54,2.36,2.36,0,0,0,1.75.84,4.17,4.17,0,0,0,3-1c.67-.63,1-.82,2-.16a4.28,4.28,0,0,0,4.87.14c.27-.16.51-.33.73-.47,1-.66,1-.63,1.36-.12.56.76,1.66,2,2.84,2h.17a1.69,1.69,0,0,0,1.37-1,4,4,0,0,1,2.4-.67,8.5,8.5,0,0,1,.95,0C29.59,22.6,29.3,22.83,28.47,23.5Zm0-4.52c-1,.1-2.73.42-3.28,1.45a.38.38,0,0,1-.11.15c-.11,0-.77-.21-1.65-1.41-1.29-1.75-2.61-.84-3.49-.24-.21.14-.42.29-.64.42a2.71,2.71,0,0,1-3.19-.07,2.74,2.74,0,0,0-3.93.3,2.7,2.7,0,0,1-1.78.55,1,1,0,0,1-.65-.25,4.22,4.22,0,0,0-5-.91c-.71.42-2.28-1.65-2.95-2.54l-.09-.13a2.06,2.06,0,0,1,.37,0,.78.78,0,0,0,.21,0,8.15,8.15,0,0,0,3.85.9l4.73.15c2.65.09,5.94.2,9,.29,8.8.23,10.51.06,11-.16a7.31,7.31,0,0,0,.9-.45,4.73,4.73,0,0,1,.58,2.53A7,7,0,0,0,28.42,19Z"/><circle class="f" cx="8.41" cy="5.67" r="1.24" transform="translate(2.51 13.93) rotate(-88.49)"/><circle class="f" cx="16.12" cy="3.19" r="1.24" transform="translate(12.5 19.22) rotate(-88.49)"/><circle class="f" cx="25.34" cy="5.91" r="1.24" transform="translate(18.76 31.09) rotate(-88.49)"/></svg>