<svg xmlns="http://www.w3.org/2000/svg" viewBox="0 0 32.75 34.74"><defs><style>.a{fill:#fff;}.b{fill:#fcb614;}.c{fill:#ec1c24;}.d{fill:#441600;}</style></defs><title>fries</title><polygon class="a" points="0.82 14.98 3.82 13.98 9.82 32.98 6.82 32.98 0.82 14.98"/><path class="b" d="M2.67,5.19"/><polyline class="b" points="2.67 5.2 5.04 13 7.44 12.77 5.55 4.85"/><polyline class="b" points="7.47 6.65 8.53 12.06 11.87 14.83 10.29 5.71"/><polyline class="b" points="13.61 1.4 12.48 13.87 15.22 17.24 16.55 17.07 16.97 1.29"/><path class="b" d="M18.39,6l.32,10.44a41.38,41.38,0,0,1,3.49-3.22L22,6.3"/><path class="b" d="M23.08,1.32l-1.47,7s-.38,5,1.18,4.8l3.12.25L25.79,1.1"/><polyline class="b" points="27.75 4.7 26.75 13.69 29.15 13.7 30.63 5.44"/><path class="c" d="M4,14.08c-.24.27,5.08,19,5.08,19s7.92.27,12.11.53,5.41-1,5.41-1l5.11-18.4s-7.06-1.81-8.27-1.4-3.73,4.37-6.86,4.29S12,13.65,10.09,12.55,4.8,13.12,4,14.08Z"/><path class="d" d="M17,34.74c4.18,0,9.37-.25,10.34-1.63,1.43-2,5.27-17,5.45-18.18a1.31,1.31,0,0,0-.32-1.05,4.82,4.82,0,0,0-2.27-1.09L31.51,5.6a.9.9,0,0,0-.62-1L26.76,3.3l-.18,0,.11-2.12A.9.9,0,0,0,25.83.2L21.15,0a.91.91,0,0,0-.94.83l-.35,4.32-2.37-.27V1.78a.9.9,0,0,0-.79-.9L12.22.33a.9.9,0,0,0-1,.77l-.51,3.82a.89.89,0,0,0-.62-.09L6.23,5.7,6,4.43a.9.9,0,0,0-1-.7l-3.78.7A.9.9,0,0,0,.42,5.52l1.72,7.55A8.14,8.14,0,0,0,.36,14a.9.9,0,0,0-.33,1C.53,16.6,4.9,31.32,6,33,7,34.48,13.28,34.72,17,34.74ZM29.59,6.06l-1.21,6.35c-.77-.13-1.55-.23-2.26-.31l.36-7ZM21.94,1.83,24.84,2l-.51,10-.93-.06a2.46,2.46,0,0,0-1,.2l.43-5.71a.9.9,0,0,0-.79-1l-.44-.05ZM21,7.1l-.48,6.37-.27.26a10.92,10.92,0,0,1-2.82,2.11l0-9.14Zm-9,1.26.81-6.13,2.82.35L15.65,16a.89.89,0,0,0,0,.25,4.54,4.54,0,0,1-2.93-1.88.9.9,0,0,0,0-.35l-1-5.13A.89.89,0,0,0,12.07,8.35ZM9.58,6.79l.93,5a2.57,2.57,0,0,0-1.32-.28,11.21,11.21,0,0,0-1.72.16L6.6,7.46ZM2.38,6l2-.37L5.71,12c-.62.15-1.25.31-1.85.5Zm6.8,7.25a1.82,1.82,0,0,1,.42,0,8.41,8.41,0,0,1,.82,1C11.56,15.8,13.25,18,15.81,18a4.47,4.47,0,0,0,.92-.09A10,10,0,0,0,21.5,15c.71-.66,1.44-1.35,1.9-1.35,2.07,0,6.48.66,7.51,1.26-.5,2.35-4,15.45-5.06,17.09-.51.39-3.57.92-8.89.9-5.53,0-8.88-.59-9.48-1C6.72,30.66,3.8,21.26,2,15.09A23.53,23.53,0,0,1,9.19,13.28Z"/></svg>