<svg xmlns="http://www.w3.org/2000/svg" viewBox="0 0 37.26 20.66"><defs><style>.a{fill:#ffd673;}.b{fill:#a00c10;}.c{fill:#441600;}.d{fill:#fcb614;}</style></defs><title>hotdog</title><path class="a" d="M33.44,7.2a15.14,15.14,0,0,0-7.34-4c-4.59-1-18.32-.26-19.8.72S3,6.24,3,6.24l.35,1.39s17.52-.79,22.46-.47A50.17,50.17,0,0,0,33.44,7.2Z"/><path class="a" d="M33.05,15.4s-1.17,2.34-6.8,2.67S5.8,17.66,4.46,17s-2.18-3.42-2.18-3.42,11.32,1.69,16.49,1.69S33.05,15.4,33.05,15.4Z"/><path class="b" d="M35.94,11.75s1.39-2.22-8.72-2.65S1.38,8.46,1,10.14a2.79,2.79,0,0,0,1.18,2.72s14,2.2,19.63,2.09,10.9.11,12.94-.75S35.94,11.75,35.94,11.75Z"/><path class="c" d="M34.55,15.25a4.49,4.49,0,0,0,2.71-4.08,3.93,3.93,0,0,0-1.16-3,3.8,3.8,0,0,0-1.23-.68.83.83,0,0,0,0-.12,10.18,10.18,0,0,0-4.51-5.84C28.35.43,22.39,0,17.9,0c-3,0-10.27.13-12.58,1.76S2.45,5.11,2.43,6.12A2.81,2.81,0,0,0,2.56,7,4.16,4.16,0,0,0,0,10.42c0,.87.36,2,2.06,3.06a.84.84,0,0,0,0,.19,7.34,7.34,0,0,0,3.75,5.74c2.15,1,17.11,1.58,22.69,1C33.56,20,34.42,16.68,34.55,15.25ZM6.29,3.14C9.24,1.06,26.47,1.32,29.52,3A8.22,8.22,0,0,1,32.91,7C25.53,5.44,8.89,6,4.19,6.62a.84.84,0,0,0,0-.12C4.13,6.44,3.69,5,6.29,3.14ZM1.69,10.46c0-.84,1-1.7,1.94-2s7.78-.78,15.47-.74c10.36,0,15,.93,15.86,1.73a2.29,2.29,0,0,1,.62,1.72,2.85,2.85,0,0,1-2.1,2.72c-2.7.84-24.6.68-29.43-1.27C2.51,12,1.67,11.21,1.69,10.46Zm4.83,7.43a5.92,5.92,0,0,1-2.72-3.6c5.07,1.68,23.46,2.12,29,1.4-.26,1.1-1.19,2.76-4.48,3.08C22.43,19.34,8.07,18.63,6.51,17.89Z"/><path class="d" d="M17.4,12.92a3.1,3.1,0,0,0,2.12,1.37,2,2,0,0,0,1.91-.9c.51-.74.26-1.75.7-2.51s1,1,1.11,1.25a2.63,2.63,0,0,0,1.53,1.32,3,3,0,0,0,3.49-1.2c.43-.72.28-2.12,1.48-1.89,1,.2,1.36,1.45,1.61,2.29s1.51.49,1.27-.32C32.13,10.71,31.29,9,29.37,9a2,2,0,0,0-1.76,1.14c-.39.75-.28,1.57-1.12,2A1.79,1.79,0,0,1,24.75,12c-.57-.38-.67-1.38-1.06-1.92a1.57,1.57,0,0,0-1.74-.62,2.23,2.23,0,0,0-1.33,1.82c-.16.83-.1,2-1.29,1.64-.92-.3-1.41-1.62-2-2.34-1-1.31-2.93-1.68-3.94-.22-.37.55-.46,1.24-.8,1.8-.64,1.05-1.72-1.06-2-1.48C10,9.39,8,8.36,7,9.94a2.62,2.62,0,0,0-.29,1.14c0,.33.1.94-.35.8A4.28,4.28,0,0,1,4.13,9.67c-.38-.75-1.52-.12-1.14.64.68,1.36,2.28,3.15,4,2.89.65-.1.95-.85,1-1.41,0-.34,0-.68.11-1,.12-.54.74-.31,1,0,.65.57.88,1.55,1.47,2.19a2.11,2.11,0,0,0,2.36.61,2.48,2.48,0,0,0,1.16-1.44c.3-.72.45-1.65,1.45-1.34S16.89,12.22,17.4,12.92Z"/></svg>