<svg xmlns="http://www.w3.org/2000/svg" viewBox="0 0 180 36"><defs><style>.a{fill:#fff;}.b{fill:#ffd673;}.c{fill:#a00c10;}.d{fill:#441600;}.e{fill:#fcb614;}.f{fill:#d6de23;}.g{fill:#f89e36;}.h{fill:#ec1c24;}.i{fill:none;}</style></defs><title>iconSlide_1</title><polyline class="a" points="149 13 148 17 146 19 147 22 148 24 150 27 159 28 169 28 173 27 175 25 176 24 177.78 20.21 177 18 176 17 174 14 172 12 163 11 152 11 149 13"/><path class="b" d="M175.35,16.46a13.76,13.76,0,0,0-6.67-3.61c-4.17-.9-16.65-.24-18,.65s-3,2.08-3,2.08l.31,1.26s15.92-.72,20.41-.43A45.6,45.6,0,0,0,175.35,16.46Z"/><path class="b" d="M175,23.91s-1.07,2.12-6.18,2.43-18.59-.38-19.8-1-2-3.11-2-3.11,10.29,1.54,15,1.53S175,23.91,175,23.91Z"/><path class="c" d="M177.61,20.6s1.27-2-7.92-2.41-23.49-.58-23.83.94a2.53,2.53,0,0,0,1.07,2.47s12.73,2,17.84,1.9,9.91.1,11.77-.68S177.61,20.6,177.61,20.6Z"/><path class="d" d="M176.35,23.77a4.09,4.09,0,0,0,2.47-3.71,3.57,3.57,0,0,0-1.05-2.72,3.46,3.46,0,0,0-1.12-.62.76.76,0,0,0,0-.11,9.25,9.25,0,0,0-4.1-5.3c-1.81-1-7.22-1.38-11.3-1.39-2.74,0-9.34.12-11.43,1.6s-2.61,3-2.62,4a2.56,2.56,0,0,0,.11.85A3.78,3.78,0,0,0,145,19.39a3.19,3.19,0,0,0,1.87,2.79.77.77,0,0,0,0,.17,6.67,6.67,0,0,0,3.41,5.21c2,.94,15.55,1.44,20.62.95C175.45,28.05,176.23,25.07,176.35,23.77Zm-25.68-11c2.68-1.89,18.33-1.65,21.11-.12a7.47,7.47,0,0,1,3.08,3.59c-6.7-1.38-21.83-.85-26.1-.3a.76.76,0,0,0,0-.11C148.71,15.77,148.31,14.43,150.67,12.77Zm-4.19,6.65c0-.76.91-1.54,1.76-1.85s7.07-.71,14.06-.67c9.42,0,13.62.84,14.41,1.58a2.08,2.08,0,0,1,.56,1.56,2.59,2.59,0,0,1-1.91,2.48c-2.46.76-22.36.62-26.75-1.15C147.23,20.79,146.47,20.1,146.48,19.42Zm4.39,6.75a5.38,5.38,0,0,1-2.48-3.27c4.61,1.53,21.32,1.93,26.36,1.27-.23,1-1.08,2.51-4.08,2.8C165.34,27.49,152.28,26.85,150.87,26.17Z"/><path class="e" d="M160.77,21.65a2.82,2.82,0,0,0,1.93,1.24,1.78,1.78,0,0,0,1.74-.82c.47-.68.24-1.59.64-2.28s.89.89,1,1.13a2.39,2.39,0,0,0,1.39,1.2A2.7,2.7,0,0,0,170.63,21c.39-.65.26-1.93,1.34-1.72.92.18,1.24,1.32,1.47,2.09s1.37.44,1.15-.29c-.44-1.46-1.2-3-3-3a1.82,1.82,0,0,0-1.6,1c-.35.68-.26,1.42-1,1.81a1.63,1.63,0,0,1-1.57-.15c-.52-.34-.61-1.25-1-1.74a1.43,1.43,0,0,0-1.58-.57,2,2,0,0,0-1.21,1.66c-.14.75-.09,1.85-1.17,1.49-.83-.27-1.28-1.47-1.77-2.12a2.17,2.17,0,0,0-3.58-.2c-.34.5-.42,1.13-.73,1.64-.58,1-1.56-1-1.78-1.35-.66-1.15-2.42-2.09-3.34-.65a2.38,2.38,0,0,0-.26,1c0,.3.09.85-.32.73a3.89,3.89,0,0,1-2-2c-.34-.69-1.38-.11-1,.58.62,1.24,2.07,2.86,3.61,2.63.59-.09.86-.77.92-1.28,0-.31,0-.62.1-.92.11-.49.67-.28.94,0,.59.52.8,1.41,1.33,2a1.92,1.92,0,0,0,2.14.56,2.25,2.25,0,0,0,1.06-1.31c.27-.65.41-1.5,1.32-1.22S160.31,21,160.77,21.65Z"/><polygon class="a" points="115 30 116 26 122 17 127 15 131 15 131 14 129 12 131.38 11.38 128 9 127 7 123 9 119 13 112 16 111 21 109 24 110 26 115 30"/><path class="b" d="M131.74,14.4s-9.19-.5-13.39,4.52-5.31,9-3.5,10.52S126,31.1,129.92,31.11a31.77,31.77,0,0,0,10.57-2.46C141.3,28.17,138.51,15.37,131.74,14.4Z"/><path class="e" d="M127.46,7.48s-1.92,1.91-1.73,2.91,5.26,0,5.26,0"/><path class="f" d="M111.8,25.41s-1.61-1.14-.48-2.32,2.93-2.54,2.85-3.64-.81-2.11,1-3,6.61-1.11,6.85-2,.17-2,1.27-2.15,5.71-.48,6.71-1,3.35,1.53,5.11,1.25,2.66-.91,2.94.64-.63,2.72,1,3.65,2.73.19,2.79,1.84-.64,3,.44,3.63a2.23,2.23,0,0,1,1.11,3c-.47,1.19-1.06,2.38-1.06,2.38a2.65,2.65,0,0,1-1.36-2,16.6,16.6,0,0,0-6.25-10.71c-5.45-4.55-16.56.48-18.92,2.6S111.8,25.41,111.8,25.41Z"/><path class="d" d="M143.09,23c-.42-.3-.45-1-.48-2.42,0-.38,0-.79,0-1.24-.09-2.1-1-2.5-2.2-2.78a4.69,4.69,0,0,1-1-.31c-.46-.22-.46-.24-.45-.86a5,5,0,0,0-.18-1.62c-.5-1.66-1.26-2.69-3.35-2.29a2.85,2.85,0,0,1-2.74-.63c-.6-1.48-3.17-3.77-5.14-4.47a2.44,2.44,0,0,0-2.53.2c-1.51,1.26-3.7,3.17-3.72,3.18a.81.81,0,0,0-.27.5,2.74,2.74,0,0,0-1.6,1.16c-.46.86-1.12,1-2.24,1.29a7.43,7.43,0,0,0-2.11.71l-.71.38c-1.53.81-3.43,1.82-3.09,3.82.15.86-.35,1.63-1.3,3-.32.47-.68,1-1,1.59a2.84,2.84,0,0,0-.36,2.36,4.52,4.52,0,0,0,2.25,2.4,2.58,2.58,0,0,0,.74,1.79c3,2.6,8.46,3.29,12.55,3.41,6.22.19,16.24-1,17.17-3.18a2.59,2.59,0,0,0,.14-.49l.15-.05A4.19,4.19,0,0,0,144,25.11,2.36,2.36,0,0,0,143.09,23Zm-17-15.16c.1-.08.43-.09.92.09a9.32,9.32,0,0,1,3,2,28.28,28.28,0,0,0-6.11-.17Zm13.69,20.5c-.84.89-8.07,2.44-15.62,2.22-5.4-.16-9.49-1.23-11.52-3-.23-.21-.44-1.64.42-4a14.46,14.46,0,0,1,13.64-9.43h.85a11.57,11.57,0,0,1,9.94,5.47C139.79,23.19,140.07,27.39,139.75,28.3Zm1.72-1.77a17,17,0,0,0-2.62-7.83,13.28,13.28,0,0,0-11.27-6.22h-.94A16.06,16.06,0,0,0,111.48,23a12.54,12.54,0,0,0-.56,2.07,2.23,2.23,0,0,1-.8-1,1.18,1.18,0,0,1,.19-1c.34-.56.68-1,1-1.52,1-1.43,1.83-2.67,1.57-4.23-.13-.78.76-1.31,2.24-2.1l.74-.4a6,6,0,0,1,1.66-.54,4.28,4.28,0,0,0,3.33-2.11s.18-.32,1.39-.58c3.13-.7,8.5-.17,9.23.37a4.54,4.54,0,0,0,4.25,1.1c.88-.17,1.08-.16,1.47,1.15a3.43,3.43,0,0,1,.11,1.13,2.19,2.19,0,0,0,1.38,2.37,6.17,6.17,0,0,0,1.32.43c.8.19.9.21.94,1.24,0,.44,0,.84,0,1.2,0,1.71.05,2.94,1.17,3.73a.8.8,0,0,1,.19.69A2.32,2.32,0,0,1,141.47,26.52Z"/><circle class="g" cx="117.65" cy="24.89" r="1.31" transform="translate(89.2 141.74) rotate(-88.26)"/><circle class="g" cx="126.59" cy="26.26" r="1.31" transform="translate(96.51 152) rotate(-88.26)"/><circle class="g" cx="122.85" cy="19.57" r="1.31" transform="translate(99.56 141.77) rotate(-88.26)"/><circle class="g" cx="131.8" cy="20.72" r="1.31" transform="translate(107.1 151.83) rotate(-88.26)"/><circle class="g" cx="135.35" cy="26.53" r="1.31" transform="translate(104.74 161.01) rotate(-88.26)"/><path class="b" d="M63,6.29l-24.44,15L65.7,25.62,64.06,6.77Zm-17.29,14a3.27,3.27,0,0,1-2-1.16,11.34,11.34,0,0,0,5.53-.24S47,20.57,45.67,20.33ZM57.6,22.64a3.27,3.27,0,0,1-2-1.16,11.34,11.34,0,0,0,5.53-.24S59,22.88,57.6,22.64Zm-.46-8.29a3.27,3.27,0,0,1-2-1.16A11.34,11.34,0,0,0,60.66,13S58.49,14.59,57.14,14.35Z"/><path class="e" d="M66,24.73a2,2,0,0,1,3.26-.15C70.95,26.42,66.74,6,66.74,6l-1.13-.67L64.48,6.4Z"/><path class="d" d="M69.34,28.57a3.91,3.91,0,0,1-3-.18,3.65,3.65,0,0,1-1.75-2.61v-.05L62.85,6.25,62.93,6a3.43,3.43,0,0,1,2.2-2.23A3.11,3.11,0,0,1,68.06,5l-1.7,1.57c-.5-.54-.75-.56-.75-.55h0a1.2,1.2,0,0,0-.41.52l1.65,18.91a1.37,1.37,0,0,0,.57.88c.43.23,1.7.5,1.41-1.18l1.73,2.92A8.11,8.11,0,0,1,69.34,28.57Z"/><path class="d" d="M69.35,30a2.45,2.45,0,0,1-1.11.06L37.35,23.47l-.23-.2a2.45,2.45,0,0,1,.46-4l1-.53L64.72,3.86a2.45,2.45,0,0,1,3.64,1.82l2.73,21.63A2.46,2.46,0,0,1,69.35,30Zm-30.73-8.6,30.06,6.38h0l.06,0a.13.13,0,0,0,0-.11L66.06,6a.13.13,0,0,0-.07-.1.13.13,0,0,0-.13,0L39.7,20.77l-1,.55A.13.13,0,0,0,38.61,21.38Z"/><path class="d" d="M49.57,15h0a4.44,4.44,0,0,0-3.43-.64,7,7,0,0,0-2.28.59,2.69,2.69,0,0,0-1.44,1.89,3.81,3.81,0,0,0,.84,3.2,3.45,3.45,0,0,0,1.19,1,3.22,3.22,0,0,0,2.48.14l.06,0,.34-.1c1.13-.33,2.69-.78,3.26-2a2.91,2.91,0,0,0,.16-1.58A3.67,3.67,0,0,0,49.57,15Zm0,2.57a1.71,1.71,0,0,1-.06.91,2.12,2.12,0,0,1-1.16.92,4.58,4.58,0,0,1-2.66.93,2.86,2.86,0,0,1-1.76-1l.45.08-.12-.14a2.6,2.6,0,0,1-.61-2.12,1.46,1.46,0,0,1,.8-1.1,3.58,3.58,0,0,1,.6-.23,8.14,8.14,0,0,1,1.29-.24,3.35,3.35,0,0,1,2.5.37A2.56,2.56,0,0,1,49.52,17.55Z"/><path class="c" d="M48.62,15.11a3.36,3.36,0,0,0-2.7,0,5.48,5.48,0,0,0-1.76.78,2.33,2.33,0,0,0-1,1.64,3.11,3.11,0,0,0,1.06,2.35,2.61,2.61,0,0,0,1,.59,2.88,2.88,0,0,0,2.1-.32c.88-.44,2.29-1,2.56-2.11a2.23,2.23,0,0,0-.1-1.16A3,3,0,0,0,48.62,15.11Zm-3,5.2a2.81,2.81,0,0,1-1.73-1,9.75,9.75,0,0,0,4.76-.2S46.83,20.52,45.66,20.31Z"/><path class="d" d="M61.07,9h0a4.44,4.44,0,0,0-3.43-.64,7,7,0,0,0-2.28.59,2.69,2.69,0,0,0-1.44,1.89,3.81,3.81,0,0,0,.84,3.2,3.45,3.45,0,0,0,1.19,1,3.22,3.22,0,0,0,2.48.14l.06,0,.34-.1c1.13-.33,2.69-.78,3.26-2a2.91,2.91,0,0,0,.16-1.58A3.67,3.67,0,0,0,61.07,9Zm0,2.57a1.71,1.71,0,0,1-.06.91,2.12,2.12,0,0,1-1.16.92,4.58,4.58,0,0,1-2.66.93,2.86,2.86,0,0,1-1.76-1l.45.08-.12-.14a2.6,2.6,0,0,1-.61-2.12,1.46,1.46,0,0,1,.8-1.1,3.58,3.58,0,0,1,.6-.23,8.14,8.14,0,0,1,1.29-.24,3.35,3.35,0,0,1,2.5.37A2.56,2.56,0,0,1,61,11.54Z"/><path class="c" d="M60.12,9.09a3.36,3.36,0,0,0-2.7,0,5.48,5.48,0,0,0-1.76.78,2.33,2.33,0,0,0-1,1.64,3.11,3.11,0,0,0,1.06,2.35,2.61,2.61,0,0,0,1,.59,2.88,2.88,0,0,0,2.1-.32c.88-.44,2.29-1,2.56-2.11a2.23,2.23,0,0,0-.1-1.16A3,3,0,0,0,60.12,9.09Zm-3,5.2a2.81,2.81,0,0,1-1.73-1,9.75,9.75,0,0,0,4.76-.2S58.33,14.5,57.16,14.29Z"/><path class="d" d="M61.51,17.31h0a4.44,4.44,0,0,0-3.43-.64,7,7,0,0,0-2.28.59,2.69,2.69,0,0,0-1.44,1.89,3.81,3.81,0,0,0,.84,3.2,3.45,3.45,0,0,0,1.19,1,3.22,3.22,0,0,0,2.48.14l.06,0,.34-.1c1.13-.33,2.69-.78,3.26-2a2.91,2.91,0,0,0,.16-1.58A3.67,3.67,0,0,0,61.51,17.31Zm0,2.57a1.71,1.71,0,0,1-.06.91,2.12,2.12,0,0,1-1.16.92,4.58,4.58,0,0,1-2.66.93,2.86,2.86,0,0,1-1.76-1l.45.08-.12-.14a2.6,2.6,0,0,1-.61-2.12,1.46,1.46,0,0,1,.8-1.1,3.58,3.58,0,0,1,.6-.23,8.14,8.14,0,0,1,1.29-.24,3.35,3.35,0,0,1,2.5.37A2.56,2.56,0,0,1,61.46,19.88Z"/><path class="c" d="M60.56,17.43a3.36,3.36,0,0,0-2.7,0,5.48,5.48,0,0,0-1.76.78,2.33,2.33,0,0,0-1,1.64,3.11,3.11,0,0,0,1.06,2.35,2.61,2.61,0,0,0,1,.59,2.88,2.88,0,0,0,2.1-.32c.88-.44,2.29-1,2.56-2.11a2.23,2.23,0,0,0-.1-1.16A3,3,0,0,0,60.56,17.43Zm-3,5.2a2.81,2.81,0,0,1-1.73-1,9.75,9.75,0,0,0,4.76-.2S58.77,22.84,57.6,22.64Z"/><polygon class="a" points="79 13 83.58 14.2 84 16 77 19 77 21.7 79 26 80 28 80 29 76 27 75 24 74 21 74 19 74 17 75 16 79 13"/><path class="b" d="M92.52,5.93S81,7.28,78.94,8.05s-2.3,4.79-2.3,4.79l28,.39s-.38-4.42-2-6S93.68,5.24,92.52,5.93Z"/><path class="b" d="M78.07,25.08a3.9,3.9,0,0,0,2.37,4.3c3,1.21,17.19,1.21,18.68.7a17.86,17.86,0,0,0,3-1.47l1.34-3.79s-1.84-.87-3.1.12A3.41,3.41,0,0,1,97.78,26c-.83,0-2.94-2.14-3.56-2.26s-2.31,1.49-3.66,1.66S88.86,23.5,87.4,24s-1.7,1.71-3.56,1.77S78.76,22.51,78.07,25.08Z"/><path class="h" d="M83.32,14.26a14.26,14.26,0,0,0-3.24,1.46c-.64.6,9.07.76,9.07.76A5,5,0,0,0,83.32,14.26Z"/><path class="h" d="M90.24,14.34s8.28-.61,9.28.66.48,1.56.48,1.56L89.65,17S88.58,14.4,90.24,14.34Z"/><path class="c" d="M84.81,16.58s-7.13,0-8,.72-1.71,2.33-.6,3,24.55,1.27,24.55,1.27a7.39,7.39,0,0,0,3.77-.71c1.54-.9,1.84-2.1.85-2.92S93.83,15.37,84.81,16.58Z"/><path class="f" d="M75.1,20.45c.41.11,1.3,4,2.56,3.85s1.61-1.37,3.13-.19,3.58,1.44,4.74.33a3.44,3.44,0,0,1,4.44.12c1,1.06,3.62-.21,4.26-.82s1.53.56,2.55,1.41,1.64.66,2.38-.25,5-.46,5.75.27,1.6-.9,1.22-2.15a2.41,2.41,0,0,0-1.2-1.58l-10.34.45C91.69,22,75.1,20.45,75.1,20.45Z"/><path class="d" d="M106.16,19.78a2.77,2.77,0,0,0,0-2.17c-.26-.61-.94-1.1-2.92-1.41a5.68,5.68,0,0,0-1.33-2.2l2.73,0a.77.77,0,0,0,.77-.86c0-.2-.55-5-2.87-7.07-.36-.32-1.31-1.19-8.74-1.38C87.32,4.54,78.68,5,77,5.59c-2.48.86-3.29,4.5-3.73,6.45-.07.33-.14.62-.19.78a.77.77,0,0,0,.72,1h0l3.27,0a4.34,4.34,0,0,0-1.64,1.33,2.58,2.58,0,0,0-2.05.86,3.39,3.39,0,0,0-.12,3.35l.13.23a1.33,1.33,0,0,0-.64.56A1.66,1.66,0,0,0,73.09,22a17.67,17.67,0,0,0,1.74,2.06c-.28,1.57.21,4.34,3.85,5.62,2.11.74,7.56,1.34,12.59,1.47,4.63.12,8.91-.15,9.87-1.07.32-.31.61-.54.86-.74,1.06-.86,1.61-1.4,1.94-3.93a1,1,0,0,1,.37.23,1.11,1.11,0,0,0,1.19.46c.49-.14.8-.6.92-1.38a6.11,6.11,0,0,0-.87-4A3.26,3.26,0,0,0,106.16,19.78Zm-17.7-4c-2.45-.1-4.69-.24-6.56-.37-1.53-.1-2.87-.19-4-.23a5.77,5.77,0,0,1,1.53-.41C84.31,14.05,87.75,14.45,88.46,15.75Zm1.65.06h0a2.67,2.67,0,0,0-.3-.83c4.72-.69,9.82-1,10.52-.33A6.06,6.06,0,0,1,101.43,16c-.83-.07-1.79-.12-2.93-.15-1.78,0-3.62,0-5.24,0-1.2,0-2.24,0-3,0ZM77.46,7.05c1.41-.49,9.71-1,16.27-.8s7.65.9,7.74,1c1.36,1.23,2,3.86,2.23,5.22l-28.95-.18C75.11,10.7,75.83,7.61,77.46,7.05Zm-2.83,9.86c.11-.08.62-.29,2.79-.23,1.19,0,2.67.13,4.39.24,2.33.15,5.24.35,8.43.43.77,0,1.82,0,3,0,1.61,0,3.43,0,5.19,0,5.2.14,6.09.7,6.24.85a1.19,1.19,0,0,1,0,.95,3.38,3.38,0,0,1-1.87,1.5c-.34.11-2.16.27-10.43.05-3.06-.08-6.35-.19-9-.29l-4.74-.15c-2.12-.06-3.57-.64-4.09-1.64A1.86,1.86,0,0,1,74.62,16.91ZM101,28.17c-.26.21-.59.47-1,.82-1.37,1.13-16.37.85-20.89-.74-2.28-.8-2.8-2.2-2.87-3.14A1.94,1.94,0,0,0,78.05,25a2.73,2.73,0,0,1,3,.54,2.36,2.36,0,0,0,1.75.84,4.17,4.17,0,0,0,3-1c.67-.63,1-.82,2-.16a4.28,4.28,0,0,0,4.87.14c.27-.16.51-.33.73-.47,1-.66,1-.63,1.36-.12.56.76,1.66,2,2.84,2h.17a1.69,1.69,0,0,0,1.37-1,4,4,0,0,1,2.4-.67,8.5,8.5,0,0,1,.95,0C102.15,27.27,101.86,27.51,101,28.17Zm0-4.52c-1,.1-2.73.42-3.28,1.45a.38.38,0,0,1-.11.15c-.11,0-.77-.21-1.65-1.41-1.29-1.75-2.61-.84-3.49-.24-.21.14-.42.29-.64.42A2.71,2.71,0,0,1,88.63,24a2.74,2.74,0,0,0-3.93.3,2.7,2.7,0,0,1-1.78.55,1,1,0,0,1-.65-.25,4.22,4.22,0,0,0-5-.91c-.71.42-2.28-1.65-2.95-2.54L74.23,21a2.06,2.06,0,0,1,.37,0,.78.78,0,0,0,.21,0,8.15,8.15,0,0,0,3.85.9l4.73.15c2.65.09,5.94.2,9,.29,8.8.23,10.51.06,11-.16a7.31,7.31,0,0,0,.9-.45,4.73,4.73,0,0,1,.58,2.53A7,7,0,0,0,101,23.66Z"/><circle class="g" cx="80.97" cy="10.34" r="1.24" transform="translate(68.5 91.01) rotate(-88.49)"/><circle class="g" cx="88.68" cy="7.86" r="1.24" transform="translate(78.48 96.3) rotate(-88.49)"/><circle class="g" cx="97.91" cy="10.58" r="1.24" transform="translate(84.74 108.18) rotate(-88.49)"/><rect class="i" width="180" height="36"/></svg>