<svg xmlns="http://www.w3.org/2000/svg" viewBox="0 0 34.82 26.53"><defs><style>.a{fill:#ffd673;}.b{fill:#fcb614;}.c{fill:#441600;}.d{fill:#a00c10;}</style></defs><title>pizza</title><path class="a" d="M26.67,2.76l-24.44,15,27.18,4.32L27.77,3.23ZM9.38,16.8a3.27,3.27,0,0,1-2-1.16,11.34,11.34,0,0,0,5.53-.24S10.74,17,9.38,16.8ZM21.31,19.1a3.27,3.27,0,0,1-2-1.16,11.34,11.34,0,0,0,5.53-.24S22.66,19.34,21.31,19.1Zm-.46-8.29a3.27,3.27,0,0,1-2-1.16,11.34,11.34,0,0,0,5.53-.24S22.2,11.05,20.85,10.82Z"/><path class="b" d="M29.71,21.19A2,2,0,0,1,33,21c1.7,1.84-2.52-18.6-2.52-18.6l-1.13-.67L28.19,2.86Z"/><path class="c" d="M33.05,25a3.91,3.91,0,0,1-3-.18,3.65,3.65,0,0,1-1.75-2.61v-.05L26.56,2.72l.08-.23A3.43,3.43,0,0,1,28.83.26,3.11,3.11,0,0,1,31.77,1.5l-1.7,1.57c-.5-.54-.75-.56-.75-.55h0a1.2,1.2,0,0,0-.41.52l1.65,18.91a1.37,1.37,0,0,0,.57.88c.43.23,1.7.5,1.41-1.18l1.73,2.92A8.11,8.11,0,0,1,33.05,25Z"/><path class="c" d="M33.06,26.44A2.45,2.45,0,0,1,32,26.5L1.06,19.94l-.23-.2a2.45,2.45,0,0,1,.46-4l1-.53L28.43.32a2.45,2.45,0,0,1,3.64,1.82L34.8,23.78a2.46,2.46,0,0,1-1.74,2.66ZM2.33,17.84l30.06,6.38h0l.06,0a.13.13,0,0,0,0-.11L29.77,2.43a.13.13,0,0,0-.07-.1.13.13,0,0,0-.13,0L3.41,17.23l-1,.55A.13.13,0,0,0,2.33,17.84Z"/><path class="c" d="M13.28,11.45h0a4.44,4.44,0,0,0-3.43-.64,7,7,0,0,0-2.28.59,2.69,2.69,0,0,0-1.44,1.89A3.81,3.81,0,0,0,7,16.48a3.45,3.45,0,0,0,1.19,1,3.22,3.22,0,0,0,2.48.14l.06,0,.34-.1c1.13-.33,2.69-.78,3.26-2a2.91,2.91,0,0,0,.16-1.58A3.67,3.67,0,0,0,13.28,11.45Zm0,2.57a1.71,1.71,0,0,1-.06.91,2.12,2.12,0,0,1-1.16.92,4.58,4.58,0,0,1-2.66.93,2.86,2.86,0,0,1-1.76-1l.45.08-.12-.14a2.6,2.6,0,0,1-.61-2.12,1.46,1.46,0,0,1,.8-1.1,3.58,3.58,0,0,1,.6-.23A8.14,8.14,0,0,1,10,12a3.35,3.35,0,0,1,2.5.37A2.56,2.56,0,0,1,13.24,14Z"/><path class="d" d="M12.33,11.57a3.36,3.36,0,0,0-2.7,0,5.48,5.48,0,0,0-1.76.78,2.33,2.33,0,0,0-1,1.64A3.11,3.11,0,0,0,8,16.31a2.61,2.61,0,0,0,1,.59,2.88,2.88,0,0,0,2.1-.32c.88-.44,2.29-1,2.56-2.11a2.23,2.23,0,0,0-.1-1.16A3,3,0,0,0,12.33,11.57Zm-3,5.2a2.81,2.81,0,0,1-1.73-1,9.75,9.75,0,0,0,4.76-.2S10.54,17,9.37,16.78Z"/><path class="c" d="M24.78,5.43h0a4.44,4.44,0,0,0-3.43-.64,7,7,0,0,0-2.28.59,2.69,2.69,0,0,0-1.44,1.89,3.81,3.81,0,0,0,.84,3.2,3.45,3.45,0,0,0,1.19,1,3.22,3.22,0,0,0,2.48.14l.06,0,.34-.1c1.13-.33,2.69-.78,3.26-2A2.91,2.91,0,0,0,26,7.84,3.67,3.67,0,0,0,24.78,5.43Zm0,2.57a1.71,1.71,0,0,1-.06.91,2.12,2.12,0,0,1-1.16.92,4.58,4.58,0,0,1-2.66.93,2.86,2.86,0,0,1-1.76-1l.45.08-.12-.14a2.6,2.6,0,0,1-.61-2.12,1.46,1.46,0,0,1,.8-1.1,3.58,3.58,0,0,1,.6-.23A8.14,8.14,0,0,1,21.5,6a3.35,3.35,0,0,1,2.5.37A2.56,2.56,0,0,1,24.74,8Z"/><path class="d" d="M23.83,5.56a3.36,3.36,0,0,0-2.7,0,5.48,5.48,0,0,0-1.76.78,2.33,2.33,0,0,0-1,1.64,3.11,3.11,0,0,0,1.06,2.35,2.61,2.61,0,0,0,1,.59,2.88,2.88,0,0,0,2.1-.32c.88-.44,2.29-1,2.56-2.11A2.23,2.23,0,0,0,25,7.28,3,3,0,0,0,23.83,5.56Zm-3,5.2a2.81,2.81,0,0,1-1.73-1,9.75,9.75,0,0,0,4.76-.2S22,11,20.88,10.76Z"/><path class="c" d="M25.22,13.77h0a4.44,4.44,0,0,0-3.43-.64,7,7,0,0,0-2.28.59,2.69,2.69,0,0,0-1.44,1.89,3.81,3.81,0,0,0,.84,3.2,3.45,3.45,0,0,0,1.19,1,3.22,3.22,0,0,0,2.48.14l.06,0,.34-.1c1.13-.33,2.69-.78,3.26-2a2.91,2.91,0,0,0,.16-1.58A3.67,3.67,0,0,0,25.22,13.77Zm0,2.57a1.71,1.71,0,0,1-.06.91,2.12,2.12,0,0,1-1.16.92,4.58,4.58,0,0,1-2.66.93,2.86,2.86,0,0,1-1.76-1l.45.08L19.86,18a2.6,2.6,0,0,1-.61-2.12,1.46,1.46,0,0,1,.8-1.1,3.58,3.58,0,0,1,.6-.23,8.14,8.14,0,0,1,1.29-.24,3.35,3.35,0,0,1,2.5.37A2.56,2.56,0,0,1,25.17,16.34Z"/><path class="d" d="M24.27,13.9a3.36,3.36,0,0,0-2.7,0,5.48,5.48,0,0,0-1.76.78,2.33,2.33,0,0,0-1,1.64,3.11,3.11,0,0,0,1.06,2.35,2.61,2.61,0,0,0,1,.59A2.88,2.88,0,0,0,23,18.9c.88-.44,2.29-1,2.56-2.11a2.23,2.23,0,0,0-.1-1.16A3,3,0,0,0,24.27,13.9Zm-3,5.2a2.81,2.81,0,0,1-1.73-1,9.75,9.75,0,0,0,4.76-.2S22.48,19.31,21.31,19.1Z"/></svg>